# Blender 4.4.3
# www.blender.org
mtllib beam_slash.mtl
o Sphere
v 0.000000 0.066518 -0.444456
v 0.000000 0.044446 -0.665176
v 0.000000 0.015607 -0.784628
v 0.000000 -0.000000 -0.800000
v 0.000000 -0.015607 -0.784628
v 0.000000 -0.044446 -0.665176
v 0.030448 0.078463 -0.153073
v 0.059726 0.073910 -0.300264
v 0.086709 0.066518 -0.435916
v 0.110360 0.056569 -0.554816
v 0.129769 0.044446 -0.652394
v 0.144192 0.030615 -0.724902
v 0.153073 0.015607 -0.769552
v 0.156072 -0.000000 -0.784628
v 0.153073 -0.015607 -0.769552
v 0.144192 -0.030615 -0.724902
v 0.129769 -0.044446 -0.652394
v 0.110360 -0.056569 -0.554816
v 0.086709 -0.066518 -0.435916
v 0.059726 -0.073910 -0.300264
v 0.030448 -0.078463 -0.153073
v 0.059726 0.078463 -0.144192
v 0.117157 0.073910 -0.282843
v 0.170086 0.066518 -0.410624
v 0.216478 0.056569 -0.522625
v 0.254552 0.044446 -0.614542
v 0.282843 0.030615 -0.682843
v 0.300264 0.015607 -0.724902
v 0.306147 -0.000000 -0.739104
v 0.300264 -0.015607 -0.724902
v 0.282843 -0.030615 -0.682843
v 0.254552 -0.044446 -0.614542
v 0.216478 -0.056569 -0.522625
v 0.170086 -0.066518 -0.410624
v 0.117157 -0.073910 -0.282843
v 0.059726 -0.078463 -0.144192
v 0.086709 0.078463 -0.129769
v 0.170086 0.073910 -0.254552
v 0.246927 0.066518 -0.369552
v 0.314278 0.056569 -0.470350
v 0.369552 0.044446 -0.553073
v 0.410624 0.030615 -0.614542
v 0.435916 0.015607 -0.652394
v 0.444456 -0.000000 -0.665176
v 0.435916 -0.015607 -0.652394
v 0.410624 -0.030615 -0.614542
v 0.369552 -0.044446 -0.553073
v 0.314278 -0.056569 -0.470350
v 0.246927 -0.066518 -0.369552
v 0.170086 -0.073910 -0.254552
v 0.086709 -0.078463 -0.129769
v 0.110360 0.078463 -0.110360
v 0.216478 0.073910 -0.216478
v 0.314278 0.066518 -0.314278
v 0.400000 0.056569 -0.400000
v 0.470350 0.044446 -0.470350
v 0.522625 0.030615 -0.522625
v 0.554816 0.015607 -0.554816
v 0.565685 -0.000000 -0.565685
v 0.554816 -0.015607 -0.554816
v 0.522625 -0.030615 -0.522625
v 0.470350 -0.044446 -0.470350
v 0.400000 -0.056569 -0.400000
v 0.314278 -0.066518 -0.314278
v 0.216478 -0.073910 -0.216478
v 0.110360 -0.078463 -0.110360
v 0.129769 0.078463 -0.086709
v 0.254552 0.073910 -0.170086
v 0.369552 0.066518 -0.246927
v 0.470350 0.056569 -0.314278
v 0.553073 0.044446 -0.369552
v 0.614542 0.030615 -0.410624
v 0.652394 0.015607 -0.435916
v 0.665176 -0.000000 -0.444456
v 0.652394 -0.015607 -0.435916
v 0.614542 -0.030615 -0.410624
v 0.553073 -0.044446 -0.369552
v 0.470350 -0.056569 -0.314278
v 0.369552 -0.066518 -0.246927
v 0.254552 -0.073910 -0.170086
v 0.129769 -0.078463 -0.086709
v 0.000000 0.080000 -0.000000
v 0.144192 0.078463 -0.059726
v 0.282843 0.073910 -0.117157
v 0.410624 0.066518 -0.170086
v 0.522625 0.056569 -0.216478
v 0.614542 0.044446 -0.254552
v 0.682843 0.030615 -0.282843
v 0.724902 0.015607 -0.300264
v 0.739103 -0.000000 -0.306147
v 0.724902 -0.015607 -0.300264
v 0.682843 -0.030615 -0.282843
v 0.614542 -0.044446 -0.254552
v 0.522625 -0.056569 -0.216478
v 0.410624 -0.066518 -0.170086
v 0.282843 -0.073910 -0.117157
v 0.144192 -0.078463 -0.059726
v 0.153073 0.078463 -0.030448
v 0.300264 0.073910 -0.059726
v 0.435916 0.066518 -0.086709
v 0.554816 0.056569 -0.110360
v 0.652394 0.044446 -0.129769
v 0.724902 0.030615 -0.144192
v 0.769552 0.015607 -0.153073
v 0.784628 -0.000000 -0.156072
v 0.769552 -0.015607 -0.153073
v 0.724902 -0.030615 -0.144192
v 0.652394 -0.044446 -0.129769
v 0.554816 -0.056569 -0.110360
v 0.435916 -0.066518 -0.086709
v 0.300264 -0.073910 -0.059726
v 0.153073 -0.078463 -0.030448
v 0.156072 0.078463 -0.000000
v 0.306147 0.073910 -0.000000
v 0.444456 0.066518 -0.000000
v 0.565685 0.056569 -0.000000
v 0.665176 0.044446 -0.000000
v 0.739104 0.030615 -0.000000
v 0.784628 0.015607 -0.000000
v 0.800000 0.000000 0.000000
v 0.784628 -0.015607 0.000000
v 0.739104 -0.030615 0.000000
v 0.665176 -0.044446 0.000000
v 0.565685 -0.056569 0.000000
v 0.444456 -0.066518 0.000000
v 0.306147 -0.073910 0.000000
v 0.156072 -0.078463 0.000000
v 0.153073 0.078463 0.030448
v 0.300264 0.073910 0.059726
v 0.435916 0.066518 0.086709
v 0.554816 0.056569 0.110360
v 0.652394 0.044446 0.129769
v 0.724902 0.030615 0.144192
v 0.769552 0.015607 0.153073
v 0.784628 0.000000 0.156072
v 0.769552 -0.015607 0.153073
v 0.724902 -0.030615 0.144192
v 0.652394 -0.044446 0.129769
v 0.554816 -0.056569 0.110360
v 0.435916 -0.066518 0.086709
v 0.300264 -0.073910 0.059726
v 0.153073 -0.078463 0.030448
v 0.144192 0.078463 0.059726
v 0.282843 0.073910 0.117157
v 0.410624 0.066518 0.170086
v 0.522625 0.056569 0.216478
v 0.614542 0.044446 0.254552
v 0.682843 0.030615 0.282843
v 0.724902 0.015607 0.300264
v 0.739103 0.000000 0.306147
v 0.724902 -0.015607 0.300264
v 0.682843 -0.030615 0.282843
v 0.614542 -0.044446 0.254552
v 0.522625 -0.056569 0.216478
v 0.410624 -0.066518 0.170086
v 0.282843 -0.073910 0.117157
v 0.144192 -0.078463 0.059726
v 0.129769 0.078463 0.086709
v 0.254552 0.073910 0.170086
v 0.369552 0.066518 0.246927
v 0.470350 0.056569 0.314278
v 0.553073 0.044446 0.369552
v 0.614542 0.030615 0.410624
v 0.652394 0.015607 0.435916
v 0.665175 0.000000 0.444456
v 0.652394 -0.015607 0.435916
v 0.614542 -0.030615 0.410624
v 0.553073 -0.044446 0.369552
v 0.470350 -0.056569 0.314278
v 0.369552 -0.066518 0.246927
v 0.254552 -0.073910 0.170086
v 0.129769 -0.078463 0.086709
v 0.110360 0.078463 0.110360
v 0.216478 0.073910 0.216478
v 0.314278 0.066518 0.314278
v 0.400000 0.056569 0.400000
v 0.470350 0.044446 0.470350
v 0.522625 0.030615 0.522625
v 0.554816 0.015607 0.554816
v 0.565685 0.000000 0.565685
v 0.554816 -0.015607 0.554816
v 0.522625 -0.030615 0.522625
v 0.470350 -0.044446 0.470350
v 0.400000 -0.056569 0.400000
v 0.314278 -0.066518 0.314278
v 0.216478 -0.073910 0.216478
v 0.110360 -0.078463 0.110360
v 0.086709 0.078463 0.129769
v 0.170086 0.073910 0.254552
v 0.246926 0.066518 0.369552
v 0.314278 0.056569 0.470350
v 0.369552 0.044446 0.553073
v 0.410624 0.030615 0.614542
v 0.435916 0.015607 0.652394
v 0.444456 0.000000 0.665175
v 0.435916 -0.015607 0.652394
v 0.410624 -0.030615 0.614542
v 0.369552 -0.044446 0.553073
v 0.314278 -0.056569 0.470350
v 0.246926 -0.066518 0.369552
v 0.170086 -0.073910 0.254552
v 0.086709 -0.078463 0.129769
v 0.059726 0.078463 0.144192
v 0.117157 0.073910 0.282843
v 0.170086 0.066518 0.410624
v 0.216478 0.056569 0.522625
v 0.254552 0.044446 0.614542
v 0.282843 0.030615 0.682843
v 0.300264 0.015607 0.724902
v 0.306146 0.000000 0.739103
v 0.300264 -0.015607 0.724902
v 0.282843 -0.030615 0.682843
v 0.254552 -0.044446 0.614542
v 0.216478 -0.056569 0.522625
v 0.170086 -0.066518 0.410624
v 0.117157 -0.073910 0.282843
v 0.059726 -0.078463 0.144192
v 0.030448 0.078463 0.153073
v 0.059726 0.073910 0.300264
v 0.086709 0.066518 0.435916
v 0.110360 0.056569 0.554816
v 0.129769 0.044446 0.652394
v 0.144192 0.030615 0.724902
v 0.153073 0.015607 0.769552
v 0.156072 0.000000 0.784628
v 0.153073 -0.015607 0.769552
v 0.144192 -0.030615 0.724902
v 0.129769 -0.044446 0.652394
v 0.110360 -0.056569 0.554816
v 0.086709 -0.066518 0.435916
v 0.059726 -0.073910 0.300264
v 0.030448 -0.078463 0.153073
v 0.000000 0.078463 0.156072
v 0.000000 0.073910 0.306147
v 0.000000 0.066518 0.444456
v 0.000000 0.056569 0.565685
v 0.000000 0.044446 0.665175
v 0.000000 0.030615 0.739103
v 0.000000 0.015607 0.784628
v 0.000000 0.000000 0.799999
v 0.000000 -0.015607 0.784628
v 0.000000 -0.030615 0.739103
v 0.000000 -0.044446 0.665175
v 0.000000 -0.056569 0.565685
v 0.000000 -0.066518 0.444456
v 0.000000 -0.073910 0.306147
v 0.000000 -0.078463 0.156072
v -0.030448 0.078463 0.153073
v -0.059726 0.073910 0.300264
v -0.086709 0.066518 0.435916
v -0.110360 0.056569 0.554816
v -0.129769 0.044446 0.652394
v -0.144192 0.030615 0.724902
v -0.153073 0.015607 0.769552
v -0.156072 0.000000 0.784628
v -0.153073 -0.015607 0.769552
v -0.144192 -0.030615 0.724902
v -0.129769 -0.044446 0.652394
v -0.110360 -0.056569 0.554816
v -0.086709 -0.066518 0.435916
v -0.059726 -0.073910 0.300264
v -0.030448 -0.078463 0.153073
v -0.059726 0.078463 0.144192
v -0.117157 0.073910 0.282843
v -0.170086 0.066518 0.410624
v -0.216478 0.056569 0.522625
v -0.254552 0.044446 0.614542
v -0.282843 0.030615 0.682842
v -0.300264 0.015607 0.724902
v -0.306147 0.000000 0.739103
v -0.300264 -0.015607 0.724902
v -0.282843 -0.030615 0.682842
v -0.254552 -0.044446 0.614542
v -0.216478 -0.056569 0.522625
v -0.170086 -0.066518 0.410624
v -0.117157 -0.073910 0.282843
v -0.059726 -0.078463 0.144192
v -0.086709 0.078463 0.129769
v -0.170086 0.073910 0.254552
v -0.246927 0.066518 0.369552
v -0.314278 0.056569 0.470350
v -0.369552 0.044446 0.553073
v -0.410624 0.030615 0.614542
v -0.435916 0.015607 0.652394
v -0.444456 0.000000 0.665175
v -0.435916 -0.015607 0.652394
v -0.410624 -0.030615 0.614542
v -0.369552 -0.044446 0.553073
v -0.314278 -0.056569 0.470350
v -0.246927 -0.066518 0.369552
v -0.170086 -0.073910 0.254552
v -0.086709 -0.078463 0.129769
v -0.110360 0.078463 0.110360
v -0.216478 0.073910 0.216478
v -0.314278 0.066518 0.314278
v -0.400000 0.056569 0.400000
v -0.470350 0.044446 0.470350
v -0.522625 0.030615 0.522625
v -0.554816 0.015607 0.554816
v -0.565685 0.000000 0.565685
v -0.554816 -0.015607 0.554816
v -0.522625 -0.030615 0.522625
v -0.470350 -0.044446 0.470350
v -0.400000 -0.056569 0.400000
v -0.314278 -0.066518 0.314278
v -0.216478 -0.073910 0.216478
v -0.110360 -0.078463 0.110360
v 0.000000 -0.080000 0.000000
v -0.129769 0.078463 0.086709
v -0.254552 0.073910 0.170086
v -0.369552 0.066518 0.246926
v -0.470350 0.056569 0.314278
v -0.553073 0.044446 0.369552
v -0.614542 0.030615 0.410624
v -0.652394 0.015607 0.435916
v -0.665175 0.000000 0.444456
v -0.652394 -0.015607 0.435916
v -0.614542 -0.030615 0.410624
v -0.553073 -0.044446 0.369552
v -0.470350 -0.056569 0.314278
v -0.369552 -0.066518 0.246926
v -0.254552 -0.073910 0.170086
v -0.129769 -0.078463 0.086709
v -0.144192 0.078463 0.059726
v -0.282843 0.073910 0.117157
v -0.410624 0.066518 0.170086
v -0.522625 0.056569 0.216478
v -0.614542 0.044446 0.254551
v -0.682842 0.030615 0.282843
v -0.724902 0.015607 0.300264
v -0.739103 0.000000 0.306146
v -0.724902 -0.015607 0.300264
v -0.682842 -0.030615 0.282843
v -0.614542 -0.044446 0.254551
v -0.522625 -0.056569 0.216478
v -0.410624 -0.066518 0.170086
v -0.282843 -0.073910 0.117157
v -0.144192 -0.078463 0.059726
v -0.153073 0.078463 0.030448
v -0.300264 0.073910 0.059726
v -0.435916 0.066518 0.086709
v -0.554816 0.056569 0.110360
v -0.652394 0.044446 0.129769
v -0.724902 0.030615 0.144192
v -0.769552 0.015607 0.153073
v -0.784628 0.000000 0.156072
v -0.769552 -0.015607 0.153073
v -0.724902 -0.030615 0.144192
v -0.652394 -0.044446 0.129769
v -0.554816 -0.056569 0.110360
v -0.435916 -0.066518 0.086709
v -0.300264 -0.073910 0.059726
v -0.153073 -0.078463 0.030448
v -0.156072 0.078463 -0.000000
v -0.306147 0.073910 -0.000000
v -0.444456 0.066518 -0.000000
v -0.565685 0.056569 -0.000000
v -0.665175 0.044446 -0.000000
v -0.739103 0.030615 -0.000000
v -0.784628 0.015607 -0.000000
v -0.799999 0.000000 0.000000
v -0.784628 -0.015607 0.000000
v -0.739103 -0.030615 0.000000
v -0.665175 -0.044446 0.000000
v -0.565685 -0.056569 0.000000
v -0.444456 -0.066518 0.000000
v -0.306147 -0.073910 0.000000
v -0.156072 -0.078463 0.000000
v -0.153073 0.078463 -0.030448
v -0.300264 0.073910 -0.059726
v -0.435916 0.066518 -0.086709
v -0.554816 0.056569 -0.110360
v -0.652394 0.044446 -0.129769
v -0.724902 0.030615 -0.144192
v -0.769551 0.015607 -0.153074
v -0.784627 -0.000000 -0.156072
v -0.769551 -0.015607 -0.153074
v -0.724902 -0.030615 -0.144192
v -0.652394 -0.044446 -0.129769
v -0.554816 -0.056569 -0.110360
v -0.435916 -0.066518 -0.086709
v -0.300264 -0.073910 -0.059726
v -0.153073 -0.078463 -0.030448
v -0.144192 0.078463 -0.059726
v -0.282843 0.073910 -0.117157
v -0.410624 0.066518 -0.170086
v -0.522625 0.056569 -0.216478
v -0.614542 0.044446 -0.254552
v -0.682842 0.030615 -0.282843
v -0.724901 0.015607 -0.300264
v -0.739103 -0.000000 -0.306147
v -0.724901 -0.015607 -0.300264
v -0.682842 -0.030615 -0.282843
v -0.614542 -0.044446 -0.254552
v -0.522625 -0.056569 -0.216478
v -0.410624 -0.066518 -0.170086
v -0.282843 -0.073910 -0.117157
v -0.144192 -0.078463 -0.059726
v -0.129769 0.078463 -0.086709
v -0.254552 0.073910 -0.170086
v -0.369551 0.066518 -0.246927
v -0.470350 0.056569 -0.314278
v -0.553073 0.044446 -0.369552
v -0.614542 0.030615 -0.410624
v -0.652394 0.015607 -0.435916
v -0.665175 -0.000000 -0.444456
v -0.652394 -0.015607 -0.435916
v -0.614542 -0.030615 -0.410624
v -0.553073 -0.044446 -0.369552
v -0.470350 -0.056569 -0.314278
v -0.369551 -0.066518 -0.246927
v -0.254552 -0.073910 -0.170086
v -0.129769 -0.078463 -0.086709
v -0.110360 0.078463 -0.110360
v -0.216478 0.073910 -0.216478
v -0.314278 0.066518 -0.314278
v -0.400000 0.056569 -0.400000
v -0.470350 0.044446 -0.470350
v -0.522625 0.030615 -0.522625
v -0.554815 0.015607 -0.554816
v -0.565685 -0.000000 -0.565685
v -0.554815 -0.015607 -0.554816
v -0.522625 -0.030615 -0.522625
v -0.470350 -0.044446 -0.470350
v -0.400000 -0.056569 -0.400000
v -0.314278 -0.066518 -0.314278
v -0.216478 -0.073910 -0.216478
v -0.110360 -0.078463 -0.110360
v -0.086709 0.078463 -0.129769
v -0.170086 0.073910 -0.254552
v -0.246926 0.066518 -0.369552
v -0.314278 0.056569 -0.470350
v -0.369551 0.044446 -0.553073
v -0.410624 0.030615 -0.614542
v -0.435916 0.015607 -0.652394
v -0.444455 -0.000000 -0.665175
v -0.435916 -0.015607 -0.652394
v -0.410624 -0.030615 -0.614542
v -0.369551 -0.044446 -0.553073
v -0.314278 -0.056569 -0.470350
v -0.246926 -0.066518 -0.369552
v -0.170086 -0.073910 -0.254552
v -0.086709 -0.078463 -0.129769
v -0.059726 0.078463 -0.144192
v -0.117157 0.073910 -0.282843
v -0.170086 0.066518 -0.410624
v -0.216478 0.056569 -0.522625
v -0.254551 0.044446 -0.614542
v -0.282843 0.030615 -0.682842
v -0.300264 0.015607 -0.724902
v -0.306146 -0.000000 -0.739103
v -0.300264 -0.015607 -0.724902
v -0.282843 -0.030615 -0.682842
v -0.254551 -0.044446 -0.614542
v -0.216478 -0.056569 -0.522625
v -0.170086 -0.066518 -0.410624
v -0.117157 -0.073910 -0.282843
v -0.059726 -0.078463 -0.144192
v -0.030448 0.078463 -0.153073
v -0.059726 0.073910 -0.300264
v -0.086709 0.066518 -0.435916
v -0.110360 0.056569 -0.554816
v -0.129769 0.044446 -0.652394
v -0.144192 0.030615 -0.724902
v -0.153073 0.015607 -0.769551
v -0.156072 -0.000000 -0.784627
v -0.153073 -0.015607 -0.769551
v -0.144192 -0.030615 -0.724902
v -0.129769 -0.044446 -0.652394
v -0.110360 -0.056569 -0.554816
v -0.086709 -0.066518 -0.435916
v -0.059726 -0.073910 -0.300264
v -0.030448 -0.078463 -0.153073
v 0.000000 0.078463 -0.156072
v 0.000000 0.073910 -0.306147
v 0.000000 0.056569 -0.565685
v 0.000000 0.030615 -0.739103
v 0.000000 -0.030615 -0.739103
v 0.000000 -0.056569 -0.565685
v 0.000000 -0.066518 -0.444456
v 0.000000 -0.073910 -0.306147
v 0.000000 -0.078463 -0.156072
vn 0.0119 -0.9926 -0.1209
vn 0.0119 0.9926 -0.1209
vn 0.0081 -0.9966 -0.0818
vn 0.0181 0.9828 -0.1839
vn 0.0053 -0.9986 -0.0535
vn 0.0053 -0.9986 -0.0534
vn -0.0053 -0.9986 -0.0535
vn 0.0308 0.9493 -0.3129
vn 0.0029 -0.9995 -0.0303
vn 0.0059 -0.9995 -0.0297
vn -0.0029 -0.9995 -0.0303
vn 0.0700 0.7000 -0.7107
vn -0.0000 1.0000 -0.0098
vn 0.0039 1.0000 -0.0059
vn 0.0019 1.0000 -0.0097
vn -0.0027 -1.0000 -0.0065
vn -0.0000 -1.0000 -0.0098
vn 0.0019 -1.0000 -0.0097
vn 0.0700 -0.7000 -0.7107
vn 0.0029 0.9995 -0.0303
vn 0.0059 0.9995 -0.0297
vn 0.0308 -0.9493 -0.3129
vn 0.0053 0.9986 -0.0535
vn 0.0104 0.9986 -0.0523
vn 0.0181 -0.9828 -0.1839
vn 0.0081 0.9966 -0.0818
vn 0.0536 -0.9828 -0.1768
vn 0.0239 0.9966 -0.0786
vn 0.0353 -0.9926 -0.1163
vn 0.0353 0.9926 -0.1163
vn 0.0239 -0.9966 -0.0786
vn 0.0536 0.9828 -0.1768
vn 0.0156 -0.9986 -0.0513
vn 0.0913 0.9493 -0.3009
vn 0.0116 -0.9995 -0.0280
vn 0.2073 0.7000 -0.6834
vn 0.0038 1.0000 -0.0091
vn 0.0038 -1.0000 -0.0091
vn 0.2073 -0.7000 -0.6834
vn 0.0089 0.9995 -0.0292
vn 0.0913 -0.9493 -0.3009
vn 0.0156 0.9986 -0.0513
vn 0.0168 -0.9995 -0.0252
vn 0.3366 0.7000 -0.6298
vn 0.0055 1.0000 -0.0082
vn 0.0055 -1.0000 -0.0082
vn 0.3366 -0.7000 -0.6298
vn 0.0144 0.9995 -0.0270
vn 0.0145 0.9995 -0.0269
vn 0.1482 -0.9493 -0.2773
vn 0.0253 0.9986 -0.0473
vn 0.0871 -0.9828 -0.1629
vn 0.0387 0.9966 -0.0725
vn 0.0573 -0.9926 -0.1072
vn 0.0573 0.9926 -0.1072
vn 0.0387 -0.9966 -0.0725
vn 0.0871 0.9828 -0.1629
vn 0.0253 -0.9986 -0.0473
vn 0.0297 -0.9986 -0.0444
vn 0.1482 0.9493 -0.2773
vn 0.0521 0.9966 -0.0635
vn 0.0771 -0.9926 -0.0939
vn 0.0771 0.9926 -0.0939
vn 0.0521 -0.9966 -0.0635
vn 0.1172 0.9828 -0.1428
vn 0.0377 -0.9986 -0.0377
vn 0.1995 0.9493 -0.2431
vn 0.0214 -0.9995 -0.0214
vn 0.4530 0.7000 -0.5520
vn 0.4531 0.7000 -0.5521
vn 0.0070 1.0000 -0.0070
vn 0.0070 -1.0000 -0.0070
vn 0.4530 -0.7000 -0.5520
vn 0.4531 -0.7000 -0.5521
vn 0.0193 0.9995 -0.0237
vn 0.0214 0.9995 -0.0214
vn 0.1995 -0.9493 -0.2431
vn 0.0340 0.9986 -0.0415
vn 0.0377 0.9986 -0.0377
vn 0.1172 -0.9828 -0.1428
vn 0.5521 0.7000 -0.4531
vn 0.5520 0.7000 -0.4530
vn 0.0082 1.0000 -0.0055
vn 0.0076 -1.0000 -0.0063
vn 0.5521 -0.7000 -0.4531
vn 0.5520 -0.7000 -0.4530
vn 0.0252 0.9995 -0.0168
vn 0.2431 -0.9493 -0.1995
vn 0.0444 0.9986 -0.0297
vn 0.1428 -0.9828 -0.1172
vn 0.0635 0.9966 -0.0521
vn 0.0939 -0.9926 -0.0771
vn 0.0939 0.9926 -0.0771
vn 0.0635 -0.9966 -0.0521
vn 0.1428 0.9828 -0.1172
vn 0.0415 -0.9986 -0.0340
vn 0.2431 0.9493 -0.1995
vn 0.0237 -0.9995 -0.0193
vn 0.1072 -0.9926 -0.0573
vn 0.1072 0.9926 -0.0573
vn 0.0725 -0.9966 -0.0387
vn 0.1629 0.9828 -0.0871
vn 0.0473 -0.9986 -0.0253
vn 0.2773 0.9493 -0.1482
vn 0.0269 -0.9995 -0.0145
vn 0.0270 -0.9995 -0.0144
vn 0.6298 0.7000 -0.3366
vn 0.0091 1.0000 -0.0038
vn 0.0083 -1.0000 0.0025
vn 0.0087 -1.0000 -0.0047
vn 0.0091 -1.0000 -0.0038
vn 0.6298 -0.7000 -0.3366
vn 0.0270 0.9995 -0.0144
vn 0.2773 -0.9493 -0.1482
vn 0.0493 0.9986 -0.0204
vn 0.1629 -0.9828 -0.0871
vn 0.0725 0.9966 -0.0387
vn 0.0097 1.0000 -0.0019
vn 0.0097 -1.0000 -0.0019
vn 0.6834 -0.7000 -0.2073
vn 0.0292 0.9995 -0.0089
vn 0.0292 0.9995 -0.0088
vn 0.3009 -0.9493 -0.0913
vn 0.0523 0.9986 -0.0104
vn 0.1768 -0.9828 -0.0536
vn 0.0786 0.9966 -0.0239
vn 0.1163 -0.9926 -0.0353
vn 0.1163 0.9926 -0.0353
vn 0.0786 -0.9966 -0.0239
vn 0.1768 0.9828 -0.0536
vn 0.0513 -0.9986 -0.0156
vn 0.0513 -0.9986 -0.0155
vn 0.3009 0.9493 -0.0913
vn 0.0292 -0.9995 -0.0089
vn 0.0292 -0.9995 -0.0088
vn 0.6834 0.7000 -0.2073
vn 0.1209 0.9926 -0.0119
vn 0.0818 -0.9966 -0.0081
vn 0.1839 0.9828 -0.0181
vn 0.0534 -0.9986 -0.0053
vn 0.0535 -0.9986 -0.0053
vn 0.3129 0.9493 -0.0308
vn 0.0303 -0.9995 -0.0030
vn 0.0303 -0.9995 -0.0029
vn 0.7107 0.7000 -0.0700
vn 0.0098 1.0000 -0.0000
vn 0.0098 -1.0000 -0.0000
vn 0.7107 -0.7000 -0.0700
vn 0.0303 0.9995 -0.0030
vn 0.0303 0.9995 -0.0000
vn 0.3129 -0.9493 -0.0308
vn 0.0534 0.9986 -0.0000
vn 0.1839 -0.9828 -0.0181
vn 0.0818 0.9966 -0.0081
vn 0.1209 -0.9926 -0.0119
vn 0.7107 -0.7000 0.0700
vn 0.0297 0.9995 0.0059
vn 0.3129 -0.9493 0.0308
vn 0.0534 0.9986 0.0053
vn 0.0513 0.9986 0.0156
vn 0.1839 -0.9828 0.0181
vn 0.0818 0.9966 0.0081
vn 0.1209 -0.9926 0.0119
vn 0.1209 0.9926 0.0119
vn 0.0818 -0.9966 0.0081
vn 0.1839 0.9828 0.0181
vn 0.0535 -0.9986 0.0053
vn 0.0523 -0.9986 0.0104
vn 0.3129 0.9493 0.0308
vn 0.0303 -0.9995 0.0029
vn 0.0303 -0.9995 0.0030
vn 0.7107 0.7000 0.0700
vn 0.0097 1.0000 0.0019
vn 0.0097 -1.0000 0.0019
vn 0.0786 -0.9966 0.0239
vn 0.1768 0.9828 0.0536
vn 0.0493 -0.9986 0.0204
vn 0.3009 0.9493 0.0913
vn 0.0292 -0.9995 0.0088
vn 0.0280 -0.9995 0.0116
vn 0.6834 0.7000 0.2073
vn 0.0095 1.0000 0.0029
vn 0.0091 -1.0000 0.0038
vn 0.6834 -0.7000 0.2073
vn 0.0292 0.9995 0.0089
vn 0.3009 -0.9493 0.0913
vn 0.0493 0.9986 0.0204
vn 0.1768 -0.9828 0.0536
vn 0.0786 0.9966 0.0239
vn 0.1163 -0.9926 0.0353
vn 0.1163 0.9926 0.0353
vn 0.2773 -0.9493 0.1482
vn 0.0473 0.9986 0.0253
vn 0.1629 -0.9828 0.0871
vn 0.0725 0.9966 0.0387
vn 0.1072 -0.9926 0.0573
vn 0.1072 0.9926 0.0573
vn 0.0725 -0.9966 0.0387
vn 0.1629 0.9828 0.0871
vn 0.0444 -0.9986 0.0297
vn 0.2773 0.9493 0.1482
vn 0.0269 -0.9995 0.0145
vn 0.0237 -0.9995 0.0193
vn 0.6298 0.7000 0.3367
vn 0.6298 0.7000 0.3366
vn 0.0087 1.0000 0.0047
vn 0.0025 1.0000 0.0083
vn 0.0082 1.0000 0.0055
vn 0.0082 -1.0000 0.0055
vn 0.6298 -0.7000 0.3367
vn 0.6298 -0.7000 0.3366
vn 0.0270 0.9995 0.0144
vn 0.0269 0.9995 0.0145
vn 0.0377 -0.9986 0.0377
vn 0.2431 0.9493 0.1995
vn 0.0214 -0.9995 0.0214
vn 0.5520 0.7000 0.4531
vn 0.5521 0.7000 0.4531
vn 0.0070 1.0000 0.0070
vn 0.0070 -1.0000 0.0070
vn 0.5520 -0.7000 0.4531
vn 0.5521 -0.7000 0.4531
vn 0.0237 0.9995 0.0193
vn 0.0214 0.9995 0.0214
vn 0.2431 -0.9493 0.1995
vn 0.0415 0.9986 0.0340
vn 0.0377 0.9986 0.0377
vn 0.1428 -0.9828 0.1172
vn 0.0635 0.9966 0.0521
vn 0.0939 -0.9926 0.0771
vn 0.0939 0.9926 0.0771
vn 0.0635 -0.9966 0.0521
vn 0.1428 0.9828 0.1172
vn 0.0340 0.9986 0.0415
vn 0.0253 0.9986 0.0473
vn 0.1172 -0.9828 0.1428
vn 0.0521 0.9966 0.0635
vn 0.0771 -0.9926 0.0939
vn 0.0771 0.9926 0.0939
vn 0.0521 -0.9966 0.0635
vn 0.1172 0.9828 0.1428
vn 0.0340 -0.9986 0.0415
vn 0.1995 0.9493 0.2431
vn 0.0193 -0.9995 0.0237
vn 0.4531 0.7000 0.5521
vn 0.4531 0.7000 0.5520
vn 0.0055 1.0000 0.0082
vn 0.0055 -1.0000 0.0082
vn 0.4531 -0.7000 0.5521
vn 0.4531 -0.7000 0.5520
vn 0.0168 0.9995 0.0252
vn 0.1995 -0.9493 0.2431
vn 0.1482 0.9493 0.2773
vn 0.0145 -0.9995 0.0269
vn 0.0116 -0.9995 0.0280
vn 0.3367 0.7000 0.6298
vn 0.0038 1.0000 0.0091
vn 0.0047 -1.0000 0.0087
vn 0.3367 -0.7000 0.6298
vn 0.3366 -0.7000 0.6298
vn 0.0144 0.9995 0.0270
vn 0.1482 -0.9493 0.2773
vn 0.0204 0.9986 0.0493
vn 0.0871 -0.9828 0.1629
vn 0.0387 0.9966 0.0725
vn 0.0573 -0.9926 0.1072
vn 0.0573 0.9926 0.1072
vn 0.0387 -0.9966 0.0725
vn 0.0871 0.9828 0.1629
vn 0.0253 -0.9986 0.0473
vn 0.0204 -0.9986 0.0493
vn 0.0536 -0.9828 0.1768
vn 0.0239 0.9966 0.0786
vn 0.0353 -0.9926 0.1163
vn 0.0353 0.9926 0.1163
vn 0.0239 -0.9966 0.0786
vn 0.0536 0.9828 0.1768
vn 0.0104 -0.9986 0.0523
vn 0.0913 0.9493 0.3009
vn 0.0059 -0.9995 0.0297
vn 0.2073 0.7000 0.6834
vn 0.0019 1.0000 0.0097
vn -0.0041 -1.0000 0.0076
vn 0.0029 -1.0000 0.0095
vn 0.0019 -1.0000 0.0097
vn 0.2073 -0.7000 0.6834
vn 0.0089 0.9995 0.0292
vn 0.0087 0.9995 0.0292
vn 0.0913 -0.9493 0.3009
vn 0.0156 0.9986 0.0513
vn 0.0029 -0.9995 0.0303
vn 0.0700 0.7000 0.7107
vn -0.0000 1.0000 0.0098
vn -0.0000 -1.0000 0.0098
vn 0.0700 -0.7000 0.7107
vn 0.0031 0.9995 0.0303
vn 0.0029 0.9995 0.0303
vn 0.0308 -0.9493 0.3129
vn 0.0053 0.9986 0.0534
vn -0.0000 0.9986 0.0534
vn 0.0181 -0.9828 0.1839
vn 0.0081 0.9966 0.0818
vn 0.0119 -0.9926 0.1209
vn 0.0119 0.9926 0.1209
vn 0.0081 -0.9966 0.0818
vn 0.0181 0.9828 0.1839
vn 0.0053 -0.9986 0.0535
vn 0.0308 0.9493 0.3129
vn -0.0081 0.9966 0.0818
vn -0.0119 -0.9926 0.1209
vn -0.0119 0.9926 0.1209
vn -0.0081 -0.9966 0.0818
vn -0.0181 0.9828 0.1839
vn -0.0053 -0.9986 0.0535
vn -0.0053 -0.9986 0.0534
vn -0.0308 0.9493 0.3129
vn -0.0029 -0.9995 0.0303
vn -0.0059 -0.9995 0.0297
vn -0.0700 0.7000 0.7107
vn -0.0019 1.0000 0.0097
vn -0.0019 -1.0000 0.0097
vn -0.0700 -0.7000 0.7107
vn -0.0029 0.9995 0.0303
vn -0.0031 0.9995 0.0303
vn -0.0308 -0.9493 0.3129
vn -0.0104 0.9986 0.0523
vn -0.0181 -0.9828 0.1839
vn -0.2073 0.7000 0.6834
vn -0.0038 1.0000 0.0091
vn -0.0038 -1.0000 0.0091
vn -0.2073 -0.7000 0.6834
vn -0.0087 0.9995 0.0292
vn -0.0089 0.9995 0.0292
vn -0.0913 -0.9493 0.3009
vn -0.0156 0.9986 0.0513
vn -0.0536 -0.9828 0.1768
vn -0.0239 0.9966 0.0786
vn -0.0353 -0.9926 0.1163
vn -0.0353 0.9926 0.1163
vn -0.0239 -0.9966 0.0786
vn -0.0536 0.9828 0.1768
vn -0.0156 -0.9986 0.0513
vn -0.0913 0.9493 0.3009
vn -0.0089 -0.9995 0.0292
vn -0.0144 -0.9995 0.0270
vn -0.0573 -0.9926 0.1072
vn -0.0573 0.9926 0.1072
vn -0.0387 -0.9966 0.0725
vn -0.0871 0.9828 0.1629
vn -0.0253 -0.9986 0.0473
vn -0.1482 0.9493 0.2773
vn -0.0168 -0.9995 0.0252
vn -0.3367 0.7000 0.6298
vn -0.3366 0.7000 0.6298
vn -0.0047 1.0000 0.0087
vn -0.0055 -1.0000 0.0082
vn -0.3367 -0.7000 0.6298
vn -0.3366 -0.7000 0.6298
vn -0.0144 0.9995 0.0270
vn -0.0145 0.9995 0.0269
vn -0.1482 -0.9493 0.2773
vn -0.0253 0.9986 0.0473
vn -0.0871 -0.9828 0.1629
vn -0.0387 0.9966 0.0725
vn -0.0070 -1.0000 0.0070
vn -0.4531 -0.7000 0.5520
vn -0.4531 -0.7000 0.5521
vn -0.0193 0.9995 0.0237
vn -0.0194 0.9995 0.0236
vn -0.1995 -0.9493 0.2431
vn -0.0340 0.9986 0.0415
vn -0.1172 -0.9828 0.1428
vn -0.0521 0.9966 0.0635
vn -0.0771 -0.9926 0.0939
vn -0.0771 0.9926 0.0939
vn -0.0521 -0.9966 0.0635
vn -0.1172 0.9828 0.1428
vn -0.0340 -0.9986 0.0415
vn -0.1995 0.9493 0.2431
vn -0.0194 -0.9995 0.0236
vn -0.4531 0.7000 0.5520
vn -0.4531 0.7000 0.5521
vn -0.0063 1.0000 0.0076
vn -0.0086 1.0000 0.0008
vn -0.0070 1.0000 0.0070
vn -0.0635 -0.9966 0.0521
vn -0.1428 0.9828 0.1172
vn -0.0415 -0.9986 0.0340
vn -0.2431 0.9493 0.1995
vn -0.0236 -0.9995 0.0194
vn -0.0252 -0.9995 0.0168
vn -0.5521 0.7000 0.4531
vn -0.5520 0.7000 0.4531
vn -0.0082 1.0000 0.0055
vn -0.0082 -1.0000 0.0055
vn -0.5521 -0.7000 0.4531
vn -0.5520 -0.7000 0.4531
vn -0.0236 0.9995 0.0194
vn -0.0237 0.9995 0.0193
vn -0.2431 -0.9493 0.1995
vn -0.0415 0.9986 0.0340
vn -0.1428 -0.9828 0.1172
vn -0.0635 0.9966 0.0521
vn -0.0939 -0.9926 0.0771
vn -0.0939 0.9926 0.0771
vn -0.0269 0.9995 0.0145
vn -0.0270 0.9995 0.0144
vn -0.2773 -0.9493 0.1482
vn -0.0473 0.9986 0.0253
vn -0.1629 -0.9828 0.0871
vn -0.0725 0.9966 0.0387
vn -0.1072 -0.9926 0.0573
vn -0.1072 0.9926 0.0573
vn -0.0725 -0.9966 0.0387
vn -0.1629 0.9828 0.0871
vn -0.0473 -0.9986 0.0253
vn -0.2773 0.9493 0.1482
vn -0.0280 -0.9995 0.0116
vn -0.6298 0.7000 0.3367
vn -0.0091 1.0000 0.0038
vn -0.0091 -1.0000 0.0038
vn -0.6298 -0.7000 0.3367
vn -0.1768 0.9828 0.0536
vn -0.0513 -0.9986 0.0156
vn -0.0513 -0.9986 0.0155
vn -0.3009 0.9493 0.0913
vn -0.0292 -0.9995 0.0088
vn -0.6834 0.7000 0.2073
vn -0.0097 1.0000 0.0019
vn -0.0095 -1.0000 0.0029
vn -0.6834 -0.7000 0.2073
vn -0.0292 0.9995 0.0089
vn -0.0292 0.9995 0.0088
vn -0.3009 -0.9493 0.0913
vn -0.0513 0.9986 0.0156
vn -0.0523 0.9986 0.0104
vn -0.1768 -0.9828 0.0536
vn -0.0786 0.9966 0.0239
vn -0.1163 -0.9926 0.0353
vn -0.1163 0.9926 0.0353
vn -0.0786 -0.9966 0.0239
vn -0.3129 -0.9493 0.0308
vn -0.0535 0.9986 0.0053
vn -0.0535 0.9986 -0.0053
vn -0.1839 -0.9828 0.0181
vn -0.0818 0.9966 0.0081
vn -0.1209 -0.9926 0.0119
vn -0.1209 0.9926 0.0119
vn -0.0818 -0.9966 0.0081
vn -0.1839 0.9828 0.0181
vn -0.0534 -0.9986 0.0053
vn -0.0535 -0.9986 0.0053
vn -0.3129 0.9493 0.0308
vn -0.0303 -0.9995 0.0030
vn -0.0303 -0.9995 0.0029
vn -0.7107 0.7000 0.0700
vn -0.0098 1.0000 -0.0000
vn -0.0098 -1.0000 0.0010
vn -0.0098 -1.0000 -0.0000
vn -0.7107 -0.7000 0.0700
vn -0.0303 0.9995 0.0030
vn -0.0303 0.9995 0.0029
vn -0.0535 -0.9986 -0.0053
vn -0.0534 -0.9986 -0.0053
vn -0.3129 0.9493 -0.0308
vn -0.0303 -0.9995 -0.0029
vn -0.0303 -0.9995 -0.0030
vn -0.7107 0.7000 -0.0700
vn -0.0097 1.0000 -0.0019
vn -0.0097 -1.0000 -0.0019
vn -0.7107 -0.7000 -0.0700
vn -0.0303 0.9995 -0.0029
vn -0.0303 0.9995 -0.0030
vn -0.3129 -0.9493 -0.0308
vn -0.0523 0.9986 -0.0104
vn -0.1839 -0.9828 -0.0181
vn -0.0818 0.9966 -0.0081
vn -0.1209 -0.9926 -0.0119
vn -0.1209 0.9926 -0.0119
vn -0.0818 -0.9966 -0.0081
vn -0.1839 0.9828 -0.0181
vn -0.0513 0.9986 -0.0156
vn -0.1768 -0.9828 -0.0536
vn -0.0786 0.9966 -0.0239
vn -0.1163 -0.9926 -0.0353
vn -0.1163 0.9926 -0.0353
vn -0.0786 -0.9966 -0.0239
vn -0.1768 0.9828 -0.0536
vn -0.0513 -0.9986 -0.0156
vn -0.3009 0.9493 -0.0913
vn -0.0292 -0.9995 -0.0088
vn -0.0292 -0.9995 -0.0089
vn -0.6834 0.7000 -0.2073
vn -0.0091 1.0000 -0.0038
vn -0.0091 -1.0000 -0.0038
vn -0.6834 -0.7000 -0.2073
vn -0.0292 0.9995 -0.0088
vn -0.0292 0.9995 -0.0089
vn -0.3009 -0.9493 -0.0913
vn -0.2773 0.9493 -0.1482
vn -0.0270 -0.9995 -0.0144
vn -0.0269 -0.9995 -0.0145
vn -0.6298 0.7000 -0.3366
vn -0.0082 1.0000 -0.0055
vn -0.0082 -1.0000 -0.0055
vn -0.6298 -0.7000 -0.3366
vn -0.0270 0.9995 -0.0144
vn -0.0269 0.9995 -0.0145
vn -0.2773 -0.9493 -0.1482
vn -0.0473 0.9986 -0.0253
vn -0.1629 -0.9828 -0.0871
vn -0.0725 0.9966 -0.0387
vn -0.1072 -0.9926 -0.0573
vn -0.1072 0.9926 -0.0573
vn -0.0725 -0.9966 -0.0387
vn -0.1629 0.9828 -0.0871
vn -0.0473 -0.9986 -0.0253
vn -0.1428 -0.9828 -0.1172
vn -0.0635 0.9966 -0.0521
vn -0.0939 -0.9926 -0.0771
vn -0.0939 0.9926 -0.0771
vn -0.0635 -0.9966 -0.0521
vn -0.1428 0.9828 -0.1172
vn -0.0415 -0.9986 -0.0340
vn -0.2431 0.9493 -0.1995
vn -0.0237 -0.9995 -0.0193
vn -0.0214 -0.9995 -0.0214
vn -0.5520 0.7000 -0.4531
vn -0.0076 1.0000 -0.0063
vn -0.0070 -1.0000 -0.0070
vn -0.5520 -0.7000 -0.4531
vn -0.0237 0.9995 -0.0193
vn -0.0236 0.9995 -0.0194
vn -0.2431 -0.9493 -0.1995
vn -0.0415 0.9986 -0.0340
vn -0.0377 0.9986 -0.0377
vn -0.0168 -0.9995 -0.0252
vn -0.4531 0.7000 -0.5520
vn -0.4531 0.7000 -0.5521
vn -0.0063 1.0000 -0.0076
vn -0.0055 1.0000 -0.0082
vn -0.0055 -1.0000 -0.0082
vn -0.4531 -0.7000 -0.5520
vn -0.4531 -0.7000 -0.5521
vn -0.0194 0.9995 -0.0236
vn -0.0193 0.9995 -0.0237
vn -0.1995 -0.9493 -0.2431
vn -0.0340 0.9986 -0.0415
vn -0.0253 0.9986 -0.0473
vn -0.1172 -0.9828 -0.1428
vn -0.0521 0.9966 -0.0635
vn -0.0771 -0.9926 -0.0939
vn -0.0771 0.9926 -0.0939
vn -0.0521 -0.9966 -0.0635
vn -0.1172 0.9828 -0.1428
vn -0.0340 -0.9986 -0.0415
vn -0.1995 0.9493 -0.2431
vn -0.0573 -0.9926 -0.1072
vn -0.0573 0.9926 -0.1072
vn -0.0387 -0.9966 -0.0725
vn -0.0871 0.9828 -0.1629
vn -0.0253 -0.9986 -0.0473
vn -0.1482 0.9493 -0.2773
vn -0.0116 -0.9995 -0.0280
vn -0.3367 0.7000 -0.6298
vn -0.0038 1.0000 -0.0091
vn -0.0038 -1.0000 -0.0091
vn -0.3367 -0.7000 -0.6298
vn -0.0145 0.9995 -0.0269
vn -0.0144 0.9995 -0.0270
vn -0.1482 -0.9493 -0.2773
vn -0.0156 0.9986 -0.0513
vn -0.0871 -0.9828 -0.1629
vn -0.0387 0.9966 -0.0725
vn -0.0019 1.0000 -0.0097
vn -0.0019 -1.0000 -0.0097
vn -0.2073 -0.7000 -0.6834
vn -0.0089 0.9995 -0.0292
vn -0.0059 0.9995 -0.0297
vn -0.0913 -0.9493 -0.3009
vn -0.0155 0.9986 -0.0513
vn -0.0053 0.9986 -0.0534
vn -0.0536 -0.9828 -0.1768
vn -0.0239 0.9966 -0.0786
vn -0.0353 -0.9926 -0.1163
vn -0.0353 0.9926 -0.1163
vn -0.0239 -0.9966 -0.0786
vn -0.0536 0.9828 -0.1768
vn -0.0156 -0.9986 -0.0513
vn -0.0155 -0.9986 -0.0513
vn -0.0913 0.9493 -0.3009
vn -0.0059 -0.9995 -0.0297
vn -0.2073 0.7000 -0.6834
vn -0.0119 0.9926 -0.1209
vn -0.0081 -0.9966 -0.0818
vn -0.0181 0.9828 -0.1839
vn -0.0053 -0.9986 -0.0534
vn -0.0308 0.9493 -0.3129
vn -0.0700 0.7000 -0.7107
vn -0.0700 -0.7000 -0.7107
vn -0.0029 0.9995 -0.0303
vn -0.0308 -0.9493 -0.3129
vn -0.0053 0.9986 -0.0535
vn -0.0181 -0.9828 -0.1839
vn -0.0081 0.9966 -0.0818
vn -0.0119 -0.9926 -0.1209
vn 0.3366 0.7000 0.6298
vn -0.5520 -0.7000 -0.4530
vt 0.500000 0.911114
vt 0.568207 0.842907
vt 0.500000 0.849625
vt 0.580203 0.903215
vt 0.553590 0.769422
vt 0.500000 0.774699
vt 0.500000 0.956804
vt 0.589117 0.948027
vt 0.536913 0.685582
vt 0.500000 0.689218
vt 0.500000 0.984941
vt 0.594606 0.975623
vt 0.518818 0.594612
vt 0.500000 0.596465
vt 0.500000 0.042055
vt 0.596459 0.032409
vt 0.500000 0.032409
vt 0.500000 0.500006
vt 0.500000 0.985998
vt 0.594606 0.976352
vt 0.500000 0.976352
vt 0.674810 0.922032
vt 0.657324 0.879820
vt 0.633793 0.823011
vt 0.605121 0.753790
vt 0.572409 0.674815
vt 0.685576 0.948027
vt 0.536913 0.589123
vt 0.689212 0.956804
vt 0.596459 0.984941
vt 0.553590 0.580209
vt 0.769416 0.903215
vt 0.774693 0.911114
vt 0.605121 0.657330
vt 0.753784 0.879820
vt 0.652612 0.728405
vt 0.728399 0.841829
vt 0.694238 0.790703
vt 0.747217 0.747223
vt 0.790697 0.790703
vt 0.694238 0.694244
vt 0.823005 0.823011
vt 0.633793 0.633799
vt 0.842901 0.842907
vt 0.568207 0.568213
vt 0.849619 0.849625
vt 0.903209 0.769422
vt 0.911108 0.774699
vt 0.580203 0.553596
vt 0.657324 0.605127
vt 0.879814 0.753790
vt 0.728399 0.652618
vt 0.841823 0.728405
vt 0.790697 0.694244
vt 0.823005 0.633799
vt 0.879814 0.657330
vt 0.753784 0.605127
vt 0.922027 0.674815
vt 0.674810 0.572415
vt 0.948021 0.685582
vt 0.589117 0.536919
vt 0.956798 0.689218
vt 0.594606 0.518824
vt 0.975617 0.594612
vt 0.685576 0.536919
vt 0.948021 0.589123
vt 0.769416 0.553596
vt 0.903209 0.580209
vt 0.842901 0.568213
vt 0.984935 0.596465
vt 0.849619 0.500006
vt 0.911108 0.500006
vt 0.774693 0.500006
vt 0.956798 0.500006
vt 0.689212 0.500006
vt 0.984935 0.500006
vt 0.596459 0.500006
vt 0.596459 0.985998
vt 0.405394 0.976352
vt 0.594606 0.481187
vt 0.685576 0.463092
vt 0.948021 0.410889
vt 0.769416 0.446416
vt 0.903209 0.419803
vt 0.842901 0.431798
vt 0.975617 0.405400
vt 0.405394 0.042055
vt 0.403540 0.032409
vt 0.823005 0.366213
vt 0.753784 0.394885
vt 0.922027 0.325196
vt 0.674810 0.427597
vt 0.948021 0.314429
vt 0.589117 0.463093
vt 0.984935 0.403546
vt 0.956798 0.310793
vt 0.879814 0.342682
vt 0.879814 0.246222
vt 0.728399 0.347394
vt 0.841823 0.271607
vt 0.790697 0.305768
vt 0.657324 0.394885
vt 0.903209 0.230590
vt 0.580203 0.446416
vt 0.911108 0.225313
vt 0.694238 0.305768
vt 0.633793 0.366213
vt 0.823005 0.177000
vt 0.842901 0.157105
vt 0.568207 0.431799
vt 0.849618 0.150387
vt 0.790697 0.209309
vt 0.747217 0.252788
vt 0.605121 0.342682
vt 0.652611 0.271607
vt 0.753784 0.120192
vt 0.728399 0.158181
vt 0.694238 0.209309
vt 0.769416 0.096797
vt 0.553590 0.419803
vt 0.774693 0.088898
vt 0.674810 0.077978
vt 0.685576 0.051984
vt 0.536913 0.410889
vt 0.689212 0.043207
vt 0.572409 0.325196
vt 0.605121 0.246222
vt 0.657324 0.120192
vt 0.633793 0.177000
vt 0.589117 0.051984
vt 0.580203 0.096797
vt 0.568207 0.157105
vt 0.553590 0.230590
vt 0.536913 0.314429
vt 0.594606 0.024388
vt 0.518818 0.405400
vt 0.596459 0.015071
vt 0.500000 0.403546
vt 0.500000 0.310793
vt 0.500000 0.043207
vt 0.500000 0.225313
vt 0.500000 0.088898
vt 0.500000 0.150387
vt 0.500000 0.015071
vt 0.431792 0.157105
vt 0.419797 0.096797
vt 0.446410 0.230590
vt 0.410883 0.051984
vt 0.463086 0.314429
vt 0.405394 0.024388
vt 0.481181 0.405400
vt 0.403540 0.015071
vt 0.314423 0.051985
vt 0.310788 0.043207
vt 0.463086 0.410889
vt 0.427591 0.325196
vt 0.325190 0.077979
vt 0.394879 0.246222
vt 0.342675 0.120192
vt 0.366207 0.177000
vt 0.305762 0.209309
vt 0.271601 0.158183
vt 0.347388 0.271607
vt 0.246216 0.120192
vt 0.394879 0.342682
vt 0.230584 0.096797
vt 0.446410 0.419803
vt 0.225307 0.088898
vt 0.431793 0.431799
vt 0.157099 0.157105
vt 0.366207 0.366213
vt 0.176995 0.177000
vt 0.305762 0.305768
vt 0.209303 0.209309
vt 0.252782 0.252788
vt 0.150381 0.150387
vt 0.209303 0.305768
vt 0.271601 0.347394
vt 0.120186 0.246222
vt 0.342676 0.394885
vt 0.096791 0.230590
vt 0.419797 0.446416
vt 0.088892 0.225313
vt 0.158176 0.271607
vt 0.325190 0.427597
vt 0.077973 0.325196
vt 0.246216 0.394885
vt 0.120186 0.342682
vt 0.176995 0.366213
vt 0.051978 0.314430
vt 0.410883 0.463093
vt 0.043202 0.310793
vt 0.051978 0.410889
vt 0.314423 0.463093
vt 0.024383 0.405400
vt 0.405394 0.481187
vt 0.015065 0.403547
vt 0.230584 0.446416
vt 0.096791 0.419803
vt 0.157099 0.431799
vt 0.043202 0.500006
vt 0.310788 0.500006
vt 0.225307 0.500006
vt 0.088892 0.500006
vt 0.150381 0.500006
vt 0.015065 0.500006
vt 0.403540 0.500006
vt 0.403541 0.032409
vt 0.403541 0.985998
vt 0.314423 0.536919
vt 0.051978 0.589123
vt 0.024383 0.594612
vt 0.405394 0.518824
vt 0.594606 0.042055
vt 0.230584 0.553596
vt 0.096791 0.580209
vt 0.157099 0.568213
vt 0.246216 0.605127
vt 0.077973 0.674815
vt 0.120186 0.657330
vt 0.176995 0.633799
vt 0.325190 0.572415
vt 0.051979 0.685582
vt 0.410883 0.536919
vt 0.015065 0.596465
vt 0.043202 0.689218
vt 0.120186 0.753790
vt 0.096791 0.769422
vt 0.419797 0.553596
vt 0.088892 0.774699
vt 0.342676 0.605127
vt 0.271601 0.652617
vt 0.158177 0.728405
vt 0.209303 0.694244
vt 0.176995 0.823011
vt 0.209303 0.790703
vt 0.252782 0.747223
vt 0.305762 0.694244
vt 0.366207 0.633799
vt 0.157099 0.842907
vt 0.431793 0.568213
vt 0.150382 0.849624
vt 0.394879 0.657330
vt 0.446410 0.580209
vt 0.230584 0.903215
vt 0.225307 0.911114
vt 0.246216 0.879820
vt 0.347388 0.728405
vt 0.271601 0.841829
vt 0.305762 0.790703
vt 0.366207 0.823011
vt 0.342676 0.879820
vt 0.394879 0.753790
vt 0.325190 0.922032
vt 0.427591 0.674815
vt 0.314424 0.948027
vt 0.463087 0.589123
vt 0.310788 0.956804
vt 0.481181 0.594612
vt 0.405394 0.975622
vt 0.463087 0.685582
vt 0.410883 0.948027
vt 0.446410 0.769420
vt 0.419797 0.903215
vt 0.431793 0.842907
vt 0.403541 0.984940
vt 0.403540 0.985998
s 1
usemtl Main
f 6/1/1 18/2/1 479/3/1
f 476/3/2 11/4/2 2/1/2
f 479/3/3 19/5/3 480/6/3
f 477/7/4 11/4/4 12/8/4
f 480/6/5 20/9/6 481/10/7
f 3/11/8 12/8/8 13/12/8
f 481/10/9 21/13/10 482/14/11
f 3/15/12 14/16/12 4/17/12
f 474/14/13 82/18/14 7/13/15
f 308/18/16 482/14/17 21/13/18
f 4/19/19 15/20/19 5/21/19
f 475/10/20 7/13/21 8/9/21
f 5/11/22 16/8/22 478/7/22
f 1/6/23 8/9/24 9/5/24
f 478/7/25 17/4/25 6/1/25
f 476/3/26 9/5/26 10/2/26
f 17/4/27 31/22/27 32/23/27
f 9/5/28 25/24/28 10/2/28
f 18/2/29 32/23/29 33/24/29
f 10/2/30 26/23/30 11/4/30
f 19/5/31 33/24/31 34/25/31
f 11/4/32 27/22/32 12/8/32
f 19/5/33 35/26/33 20/9/6
f 13/12/34 27/22/34 28/27/34
f 21/13/10 35/26/35 36/28/35
f 13/12/36 29/29/36 14/30/36
f 7/13/15 82/18/14 22/28/37
f 308/18/16 21/13/18 36/28/38
f 15/12/39 29/29/39 30/27/39
f 7/13/21 23/26/40 8/9/21
f 15/12/41 31/22/41 16/8/41
f 8/9/24 24/25/42 9/5/24
f 35/26/35 51/31/43 36/28/35
f 29/29/44 43/32/44 44/33/44
f 22/28/37 82/18/14 37/31/45
f 308/18/16 36/28/38 51/31/46
f 29/29/47 45/32/47 30/27/47
f 22/28/48 38/34/49 23/26/40
f 30/27/50 46/35/50 31/22/50
f 23/26/51 39/36/51 24/25/42
f 32/23/52 46/35/52 47/37/52
f 24/25/53 40/38/53 25/24/53
f 33/24/54 47/37/54 48/38/54
f 25/24/55 41/37/55 26/23/55
f 33/24/56 49/36/56 34/25/56
f 26/23/57 42/35/57 27/22/57
f 34/25/58 50/34/59 35/26/33
f 28/27/60 42/35/60 43/32/60
f 39/36/61 55/39/61 40/38/61
f 47/37/62 63/39/62 48/38/62
f 40/38/63 56/40/63 41/37/63
f 49/36/64 63/39/64 64/41/64
f 41/37/65 57/42/65 42/35/65
f 50/34/59 64/41/66 65/43/66
f 43/32/67 57/42/67 58/44/67
f 51/31/43 65/43/68 66/45/68
f 44/33/69 58/44/70 59/46/70
f 37/31/45 82/18/14 52/45/71
f 308/18/16 51/31/46 66/45/72
f 44/33/73 60/44/74 45/32/73
f 37/31/75 53/43/76 38/34/49
f 45/32/77 61/42/77 46/35/77
f 38/34/78 54/41/79 39/36/51
f 47/37/80 61/42/80 62/40/80
f 59/46/81 73/47/82 74/48/82
f 52/45/71 82/18/14 67/49/83
f 308/18/16 66/45/72 81/49/84
f 59/46/85 75/47/86 60/44/85
f 53/43/76 67/49/87 68/50/87
f 60/44/88 76/51/88 61/42/88
f 54/41/79 68/50/89 69/52/89
f 62/40/90 76/51/90 77/53/90
f 54/41/91 70/54/91 55/39/91
f 62/40/92 78/54/92 63/39/92
f 56/40/93 70/54/93 71/53/93
f 64/41/94 78/54/94 79/52/94
f 56/40/95 72/51/95 57/42/95
f 64/41/66 80/50/96 65/43/66
f 58/44/97 72/51/97 73/47/97
f 65/43/68 81/49/98 66/45/68
f 77/53/99 94/55/99 78/54/99
f 71/53/100 86/55/100 87/56/100
f 78/54/101 95/57/101 79/52/101
f 71/53/102 88/58/102 72/51/102
f 79/52/103 96/59/103 80/50/96
f 73/47/104 88/58/104 89/60/104
f 80/50/105 97/61/106 81/49/98
f 74/48/107 89/60/107 90/62/107
f 67/49/83 82/18/14 83/61/108
f 308/18/109 81/49/110 97/61/111
f 74/48/112 91/60/112 75/47/112
f 67/49/87 84/59/113 68/50/87
f 75/47/114 92/58/114 76/51/114
f 68/50/89 85/57/115 69/52/89
f 77/53/116 92/58/116 93/56/116
f 69/52/117 86/55/117 70/54/117
f 83/61/108 82/18/14 98/63/118
f 308/18/109 97/61/111 112/63/119
f 90/62/120 106/64/120 91/60/120
f 83/61/121 99/65/122 84/59/113
f 91/60/123 107/66/123 92/58/123
f 85/57/115 99/65/124 100/67/124
f 93/56/125 107/66/125 108/68/125
f 85/57/126 101/69/126 86/55/126
f 93/56/127 109/69/127 94/55/127
f 87/56/128 101/69/128 102/68/128
f 95/57/129 109/69/129 110/67/129
f 87/56/130 103/66/130 88/58/130
f 95/57/131 111/65/132 96/59/103
f 89/60/133 103/66/133 104/64/133
f 96/59/134 112/63/135 97/61/106
f 90/62/136 104/64/136 105/70/136
f 102/68/137 116/71/137 117/72/137
f 110/67/138 124/71/138 125/73/138
f 102/68/139 118/74/139 103/66/139
f 110/67/140 126/75/141 111/65/132
f 104/64/142 118/74/142 119/76/142
f 111/65/143 127/77/144 112/63/135
f 105/16/145 119/15/145 120/17/145
f 98/63/118 82/18/14 113/77/146
f 308/18/109 112/63/119 127/77/147
f 105/78/148 121/21/148 106/20/148
f 98/63/149 114/75/150 99/65/122
f 106/64/151 122/74/151 107/66/151
f 99/65/124 115/73/152 100/67/124
f 108/68/153 122/74/153 123/72/153
f 100/67/154 116/71/154 101/69/154
f 108/68/155 124/71/155 109/69/155
f 120/19/156 136/79/156 121/21/156
f 114/75/150 128/80/157 129/81/157
f 121/76/158 137/82/158 122/74/158
f 115/73/152 129/81/159 130/83/160
f 123/72/161 137/82/161 138/84/161
f 115/73/162 131/85/162 116/71/162
f 123/72/163 139/85/163 124/71/163
f 117/72/164 131/85/164 132/84/164
f 125/73/165 139/85/165 140/83/165
f 117/72/166 133/82/166 118/74/166
f 125/73/167 141/81/168 126/75/141
f 119/76/169 133/82/169 134/86/169
f 126/75/170 142/80/171 127/77/144
f 120/17/172 134/87/172 135/88/172
f 113/77/146 82/18/14 128/80/173
f 308/18/109 127/77/147 142/80/174
f 140/83/175 154/89/175 155/90/175
f 132/84/176 148/91/176 133/82/176
f 141/81/168 155/90/177 156/92/177
f 134/86/178 148/91/178 149/93/178
f 141/81/179 157/94/180 142/80/171
f 135/95/181 149/93/181 150/96/181
f 128/80/173 82/18/14 143/94/182
f 308/18/109 142/80/174 157/94/183
f 135/95/184 151/93/184 136/86/184
f 128/80/157 144/92/185 129/81/157
f 136/86/186 152/91/186 137/82/186
f 130/83/160 144/92/187 145/90/187
f 138/84/188 152/91/188 153/97/188
f 130/83/189 146/89/189 131/85/189
f 138/84/190 154/89/190 139/85/190
f 132/84/191 146/89/191 147/97/191
f 151/93/192 167/98/192 152/91/192
f 144/92/187 160/99/193 145/90/187
f 153/97/194 167/98/194 168/100/194
f 145/90/195 161/101/195 146/89/195
f 153/97/196 169/101/196 154/89/196
f 147/97/197 161/101/197 162/100/197
f 155/90/198 169/101/198 170/99/198
f 147/97/199 163/98/199 148/91/199
f 155/90/177 171/102/200 156/92/177
f 149/93/201 163/98/201 164/103/201
f 157/94/180 171/102/202 172/104/203
f 150/96/204 164/103/205 165/105/205
f 143/94/206 82/18/207 158/104/208
f 308/18/109 157/94/183 172/104/209
f 150/96/210 166/103/211 151/93/210
f 143/94/212 159/102/213 144/92/185
f 171/102/200 185/106/214 186/107/214
f 164/103/215 178/108/215 179/109/215
f 172/104/203 186/107/216 187/110/216
f 165/105/217 179/109/218 180/111/218
f 158/104/208 82/18/207 173/110/219
f 308/18/109 172/104/209 187/110/220
f 165/105/221 181/109/222 166/103/221
f 158/104/223 174/107/224 159/102/213
f 166/103/225 182/108/225 167/98/225
f 159/102/226 175/106/227 160/99/193
f 168/100/228 182/108/228 183/112/228
f 160/99/229 176/113/229 161/101/229
f 168/100/230 184/113/230 169/101/230
f 162/100/231 176/113/231 177/112/231
f 170/99/232 184/113/232 185/106/232
f 162/100/233 178/108/233 163/98/233
f 175/106/227 189/114/234 190/115/235
f 183/112/236 197/116/236 198/117/236
f 175/106/237 191/118/237 176/113/237
f 183/112/238 199/118/238 184/113/238
f 177/112/239 191/118/239 192/117/239
f 185/106/240 199/118/240 200/115/240
f 177/112/241 193/116/241 178/108/241
f 185/106/214 201/114/242 186/107/214
f 179/109/243 193/116/243 194/119/243
f 186/107/216 202/120/244 187/110/216
f 180/111/245 194/119/246 195/121/246
f 173/110/219 82/18/207 188/120/247
f 308/18/109 187/110/220 202/120/248
f 180/111/249 196/119/250 181/109/249
f 174/107/224 188/120/251 189/114/251
f 181/109/252 197/116/252 182/108/252
f 194/119/253 208/122/253 209/123/253
f 201/114/254 217/124/255 202/120/244
f 195/121/256 209/123/256 210/125/256
f 188/120/247 82/18/207 203/124/257
f 308/18/109 202/120/248 217/124/258
f 195/121/259 211/123/259 196/119/260
f 188/120/251 204/126/261 189/114/251
f 196/119/262 212/122/262 197/116/262
f 190/115/235 204/126/263 205/127/263
f 198/117/264 212/122/264 213/128/264
f 190/115/265 206/129/265 191/118/265
f 198/117/266 214/129/266 199/118/266
f 192/117/267 206/129/267 207/128/267
f 200/115/268 214/129/268 215/127/268
f 192/117/269 208/122/269 193/116/269
f 200/115/270 216/126/271 201/114/242
f 213/128/272 227/130/272 228/131/272
f 205/127/273 221/132/273 206/129/273
f 213/128/274 229/132/274 214/129/274
f 207/128/275 221/132/275 222/131/275
f 215/127/276 229/132/276 230/133/276
f 207/128/277 223/130/277 208/122/277
f 216/126/271 230/133/278 231/134/278
f 209/123/279 223/130/279 224/135/279
f 217/124/255 231/134/280 232/136/280
f 210/125/281 224/135/281 225/137/281
f 203/124/257 82/18/207 218/136/282
f 308/18/283 217/124/284 232/136/285
f 210/125/286 226/135/286 211/123/286
f 203/124/287 219/134/288 204/126/261
f 211/123/289 227/130/289 212/122/289
f 204/126/263 220/133/290 205/127/263
f 231/134/280 247/138/291 232/136/280
f 225/16/292 239/15/292 240/17/292
f 218/136/282 82/18/207 233/138/293
f 308/18/283 232/136/285 247/138/294
f 225/78/295 241/21/295 226/20/295
f 218/136/296 234/139/297 219/134/288
f 226/135/298 242/140/298 227/130/298
f 219/134/299 235/141/300 220/133/290
f 228/131/301 242/140/301 243/142/301
f 220/133/302 236/143/302 221/132/302
f 228/131/303 244/143/303 229/132/303
f 222/131/304 236/143/304 237/142/304
f 230/133/305 244/143/305 245/141/305
f 222/131/306 238/140/306 223/130/306
f 230/133/278 246/139/307 231/134/278
f 224/135/308 238/140/308 239/144/308
f 235/141/309 251/145/309 236/143/309
f 243/142/310 259/145/310 244/143/310
f 237/142/311 251/145/311 252/146/311
f 245/141/312 259/145/312 260/147/312
f 237/142/313 253/148/313 238/140/313
f 245/141/314 261/149/315 246/139/307
f 239/144/316 253/148/316 254/150/316
f 246/139/317 262/151/318 247/138/291
f 240/17/319 254/87/319 255/88/319
f 233/138/293 82/18/207 248/151/320
f 308/18/283 247/138/294 262/151/321
f 240/19/322 256/79/322 241/21/322
f 233/138/323 249/149/324 234/139/297
f 241/144/325 257/148/325 242/140/325
f 235/141/300 249/149/326 250/147/326
f 243/142/327 257/148/327 258/146/327
f 255/152/328 269/153/328 270/154/328
f 248/151/320 82/18/207 263/155/329
f 308/18/283 262/151/321 277/155/330
f 255/152/331 271/153/331 256/150/331
f 248/151/332 264/156/333 249/149/324
f 256/150/334 272/157/334 257/148/334
f 249/149/326 265/158/335 250/147/326
f 258/146/336 272/157/336 273/159/336
f 250/147/337 266/160/337 251/145/337
f 258/146/338 274/160/338 259/145/338
f 252/146/339 266/160/339 267/159/339
f 260/147/340 274/160/340 275/158/340
f 252/146/341 268/157/341 253/148/341
f 260/147/342 276/156/342 261/149/315
f 254/150/343 268/157/343 269/153/343
f 262/151/318 276/156/344 277/155/345
f 273/159/346 289/161/346 274/160/346
f 266/160/347 282/162/347 267/159/347
f 275/158/348 289/161/348 290/163/348
f 267/159/349 283/164/349 268/157/349
f 275/158/350 291/165/350 276/156/342
f 269/153/351 283/164/351 284/166/351
f 277/155/345 291/165/352 292/167/352
f 270/154/353 284/166/354 285/168/354
f 263/155/329 82/18/207 278/167/355
f 308/18/283 277/155/330 292/167/356
f 270/154/357 286/166/358 271/153/357
f 263/155/359 279/165/360 264/156/333
f 271/153/361 287/164/361 272/157/361
f 264/156/362 280/163/362 265/158/335
f 273/159/363 287/164/363 288/162/363
f 265/158/364 281/161/364 266/160/364
f 308/18/283 292/167/356 307/169/365
f 285/168/366 301/170/367 286/166/366
f 278/167/368 294/171/369 279/165/360
f 286/166/370 302/172/370 287/164/370
f 279/165/371 295/173/371 280/163/362
f 288/162/372 302/172/372 303/174/372
f 280/163/373 296/175/373 281/161/373
f 288/162/374 304/175/374 289/161/374
f 282/162/375 296/175/375 297/174/375
f 290/163/376 304/175/376 305/173/376
f 282/162/377 298/172/377 283/164/377
f 290/163/378 306/171/378 291/165/350
f 284/166/379 298/172/379 299/170/379
f 291/165/352 307/169/380 292/167/352
f 285/168/381 299/170/382 300/176/382
f 278/167/383 82/18/384 293/169/385
f 305/173/386 320/177/386 321/178/386
f 297/174/387 314/179/387 298/172/387
f 305/173/388 322/180/388 306/171/378
f 299/170/389 314/179/389 315/181/389
f 306/171/390 323/182/391 307/169/380
f 300/176/392 315/181/393 316/183/393
f 293/169/385 82/18/384 309/182/394
f 308/18/283 307/169/365 323/182/395
f 300/176/396 317/181/397 301/170/396
f 293/169/398 310/180/399 294/171/369
f 301/170/400 318/179/400 302/172/400
f 294/171/401 311/178/401 295/173/371
f 303/174/402 318/179/402 319/184/402
f 295/173/403 312/177/403 296/175/403
f 303/174/404 320/177/404 304/175/404
f 297/174/405 312/177/405 313/184/405
f 309/182/406 325/185/407 310/180/399
f 317/181/408 333/186/408 318/179/408
f 310/180/409 326/187/409 311/178/401
f 319/184/410 333/186/410 334/188/410
f 311/178/411 327/189/411 312/177/411
f 319/184/412 335/189/412 320/177/412
f 313/184/413 327/189/413 328/188/413
f 321/178/414 335/189/414 336/187/414
f 313/184/415 329/186/415 314/179/415
f 321/178/416 337/185/416 322/180/388
f 315/181/417 329/186/417 330/190/417
f 323/182/391 337/185/418 338/191/418
f 316/183/419 330/190/419 331/192/419
f 309/182/394 82/18/384 324/191/420
f 308/18/283 323/182/395 338/191/421
f 316/183/422 332/190/422 317/181/422
f 328/188/423 344/193/423 329/186/423
f 336/187/424 352/194/425 337/185/416
f 330/190/426 344/193/426 345/195/426
f 337/185/418 353/196/427 338/191/418
f 331/192/428 345/195/428 346/197/428
f 324/191/420 82/18/384 339/196/429
f 308/18/283 338/191/421 353/196/430
f 331/192/431 347/195/431 332/190/431
f 324/191/432 340/194/433 325/185/407
f 332/190/434 348/193/434 333/186/434
f 325/185/435 341/198/436 326/187/409
f 334/188/437 348/193/437 349/199/437
f 326/187/438 342/200/438 327/189/438
f 334/188/439 350/200/439 335/189/439
f 328/188/440 342/200/440 343/199/440
f 336/187/441 350/200/441 351/198/441
f 347/195/442 363/201/442 348/193/442
f 341/198/436 355/202/443 356/203/444
f 349/199/445 363/201/445 364/204/445
f 341/198/446 357/205/446 342/200/446
f 349/199/447 365/205/447 350/200/447
f 343/199/448 357/205/448 358/204/448
f 351/198/449 365/205/449 366/203/449
f 343/199/450 359/201/450 344/193/450
f 351/198/451 367/202/452 352/194/425
f 345/195/453 359/201/453 360/206/453
f 352/194/454 368/207/455 353/196/427
f 346/208/456 360/15/456 361/17/456
f 339/196/429 82/18/384 354/207/457
f 308/18/16 353/196/458 368/207/459
f 346/209/460 362/21/460 347/79/460
f 339/196/461 355/202/462 340/194/433
f 366/203/463 382/210/464 367/202/452
f 360/206/465 374/211/465 375/212/465
f 367/202/466 383/213/467 368/207/455
f 361/17/468 375/214/468 376/16/468
f 354/207/457 82/18/384 369/213/469
f 308/18/16 368/207/459 383/213/470
f 361/19/471 377/20/471 362/21/471
f 354/207/472 370/210/473 355/202/462
f 362/206/474 378/211/474 363/201/474
f 356/203/444 370/210/475 371/215/475
f 364/204/476 378/211/476 379/216/476
f 356/203/477 372/217/477 357/205/477
f 364/204/478 380/217/478 365/205/478
f 358/204/479 372/217/479 373/216/479
f 366/203/480 380/217/480 381/215/480
f 358/204/481 374/211/481 359/201/481
f 370/210/475 386/218/482 371/215/475
f 379/216/483 393/219/483 394/220/483
f 371/215/484 387/221/484 372/217/484
f 379/216/485 395/221/485 380/217/485
f 373/216/486 387/221/486 388/220/486
f 381/215/487 395/221/487 396/218/487
f 373/216/488 389/219/488 374/211/488
f 381/215/489 397/222/489 382/210/464
f 375/212/490 389/219/490 390/223/490
f 382/210/491 398/224/492 383/213/467
f 376/225/493 390/223/493 391/226/493
f 369/213/469 82/18/384 384/224/494
f 308/18/16 383/213/470 398/224/495
f 376/225/496 392/223/496 377/212/496
f 369/213/497 385/222/498 370/210/473
f 377/212/499 393/219/499 378/211/499
f 390/223/500 404/227/500 405/228/500
f 397/222/501 413/229/502 398/224/492
f 391/226/503 405/228/503 406/230/503
f 384/224/494 82/18/384 399/229/504
f 308/18/16 398/224/495 413/229/505
f 391/226/506 407/228/506 392/223/506
f 384/224/507 400/231/508 385/222/498
f 392/223/509 408/227/509 393/219/509
f 385/222/510 401/232/510 386/218/482
f 394/220/511 408/227/511 409/233/511
f 386/218/512 402/234/512 387/221/512
f 394/220/513 410/234/513 395/221/513
f 388/220/514 402/234/514 403/233/514
f 396/218/515 410/234/515 411/232/515
f 388/220/516 404/227/516 389/219/516
f 396/218/517 412/231/517 397/222/489
f 409/233/518 423/235/518 424/236/518
f 401/232/519 417/237/519 402/234/519
f 409/233/520 425/237/520 410/234/520
f 403/233/521 417/237/521 418/236/521
f 411/232/522 425/237/522 426/238/522
f 403/233/523 419/235/523 404/227/523
f 411/232/524 427/239/524 412/231/517
f 405/228/525 419/235/525 420/240/525
f 412/231/526 428/241/527 413/229/502
f 406/230/528 420/240/528 421/242/528
f 399/229/504 82/18/384 414/241/529
f 308/18/16 413/229/505 428/241/530
f 406/230/531 422/240/531 407/228/531
f 399/229/532 415/239/533 400/231/508
f 407/228/534 423/235/534 408/227/534
f 400/231/535 416/238/536 401/232/510
f 428/241/527 442/243/537 443/244/537
f 421/242/538 435/245/539 436/246/539
f 414/241/540 82/18/14 429/244/541
f 308/18/16 428/241/530 443/244/542
f 421/242/543 437/245/544 422/240/543
f 414/241/545 430/243/546 415/239/533
f 422/240/547 438/247/547 423/235/547
f 416/238/536 430/243/548 431/248/549
f 424/236/550 438/247/550 439/249/550
f 416/238/551 432/250/551 417/237/551
f 424/236/552 440/250/552 425/237/552
f 418/236/553 432/250/553 433/249/553
f 426/238/554 440/250/554 441/248/554
f 418/236/555 434/247/555 419/235/555
f 426/238/556 442/243/556 427/239/524
f 420/240/557 434/247/557 435/245/557
f 439/249/558 455/251/558 440/250/558
f 433/249/559 447/251/559 448/252/559
f 441/248/560 455/251/560 456/253/560
f 433/249/561 449/254/561 434/247/561
f 441/248/562 457/255/562 442/243/556
f 435/245/563 449/254/563 450/256/563
f 442/243/537 458/257/564 443/244/537
f 436/246/565 450/256/565 451/258/565
f 429/244/541 82/18/14 444/257/566
f 308/18/16 443/244/542 458/257/567
f 436/246/568 452/256/568 437/245/568
f 429/244/569 445/255/570 430/243/546
f 437/245/571 453/254/571 438/247/571
f 431/248/549 445/255/549 446/253/572
f 439/249/573 453/254/573 454/252/573
f 431/248/574 447/251/574 432/250/574
f 444/257/566 82/18/14 459/259/575
f 308/18/16 458/257/567 473/259/576
f 451/258/577 467/260/577 452/256/577
f 444/257/578 460/261/579 445/255/570
f 452/256/580 468/262/580 453/254/580
f 446/253/572 460/261/581 461/263/582
f 454/252/583 468/262/583 469/264/583
f 446/253/584 462/265/584 447/251/584
f 454/252/585 470/265/585 455/251/585
f 448/252/586 462/265/586 463/264/586
f 456/253/587 470/265/587 471/263/587
f 448/252/588 464/262/588 449/254/588
f 456/253/589 472/261/590 457/255/562
f 450/256/591 464/262/591 465/260/591
f 458/257/564 472/261/592 473/259/592
f 451/258/593 465/260/593 466/266/593
f 463/264/594 476/3/594 2/1/594
f 471/263/595 479/3/595 480/6/595
f 464/262/596 2/1/596 477/7/596
f 471/263/597 481/10/7 472/261/590
f 465/260/598 477/7/598 3/11/598
f 472/261/592 482/14/11 473/259/592
f 466/208/599 3/15/599 4/17/599
f 459/259/575 82/18/14 474/14/13
f 308/18/16 473/259/576 482/14/17
f 466/209/600 5/21/600 467/79/600
f 460/261/579 474/14/601 475/10/20
f 467/260/602 478/7/602 468/262/602
f 461/263/582 475/10/603 1/6/23
f 468/262/604 6/1/604 469/264/604
f 462/265/605 1/6/605 476/3/605
f 469/264/606 479/3/606 470/265/606
f 6/1/1 17/4/1 18/2/1
f 476/3/2 10/2/2 11/4/2
f 479/3/3 18/2/3 19/5/3
f 477/7/4 2/1/4 11/4/4
f 480/6/5 19/5/33 20/9/6
f 3/11/8 477/7/8 12/8/8
f 481/10/9 20/9/10 21/13/10
f 3/15/12 13/214/12 14/16/12
f 4/19/19 14/78/19 15/20/19
f 475/10/20 474/14/601 7/13/21
f 5/11/22 15/12/22 16/8/22
f 1/6/23 475/10/603 8/9/24
f 478/7/25 16/8/25 17/4/25
f 476/3/26 1/6/26 9/5/26
f 17/4/27 16/8/27 31/22/27
f 9/5/28 24/25/28 25/24/28
f 18/2/29 17/4/29 32/23/29
f 10/2/30 25/24/30 26/23/30
f 19/5/31 18/2/31 33/24/31
f 11/4/32 26/23/32 27/22/32
f 19/5/33 34/25/58 35/26/33
f 13/12/34 12/8/34 27/22/34
f 21/13/10 20/9/10 35/26/35
f 13/12/36 28/27/36 29/29/36
f 15/12/39 14/30/39 29/29/39
f 7/13/21 22/28/48 23/26/40
f 15/12/41 30/27/41 31/22/41
f 8/9/24 23/26/51 24/25/42
f 35/26/35 50/34/43 51/31/43
f 29/29/44 28/27/44 43/32/44
f 29/29/47 44/33/47 45/32/47
f 22/28/48 37/31/75 38/34/49
f 30/27/50 45/32/50 46/35/50
f 23/26/51 38/34/78 39/36/51
f 32/23/52 31/22/52 46/35/52
f 24/25/53 39/36/53 40/38/53
f 33/24/54 32/23/54 47/37/54
f 25/24/55 40/38/55 41/37/55
f 33/24/56 48/38/56 49/36/56
f 26/23/57 41/37/57 42/35/57
f 34/25/58 49/36/59 50/34/59
f 28/27/60 27/22/60 42/35/60
f 39/36/61 54/41/61 55/39/61
f 47/37/62 62/40/62 63/39/62
f 40/38/63 55/39/63 56/40/63
f 49/36/64 48/38/64 63/39/64
f 41/37/65 56/40/65 57/42/65
f 50/34/59 49/36/59 64/41/66
f 43/32/67 42/35/67 57/42/67
f 51/31/43 50/34/43 65/43/68
f 44/33/69 43/32/69 58/44/70
f 44/33/73 59/46/74 60/44/74
f 37/31/75 52/45/76 53/43/76
f 45/32/77 60/44/77 61/42/77
f 38/34/78 53/43/79 54/41/79
f 47/37/80 46/35/80 61/42/80
f 59/46/81 58/44/81 73/47/82
f 59/46/85 74/48/86 75/47/86
f 53/43/76 52/45/76 67/49/87
f 60/44/88 75/47/88 76/51/88
f 54/41/79 53/43/79 68/50/89
f 62/40/90 61/42/90 76/51/90
f 54/41/91 69/52/91 70/54/91
f 62/40/92 77/53/92 78/54/92
f 56/40/93 55/39/93 70/54/93
f 64/41/94 63/39/94 78/54/94
f 56/40/95 71/53/95 72/51/95
f 64/41/66 79/52/103 80/50/96
f 58/44/97 57/42/97 72/51/97
f 65/43/68 80/50/105 81/49/98
f 77/53/99 93/56/99 94/55/99
f 71/53/100 70/54/100 86/55/100
f 78/54/101 94/55/101 95/57/101
f 71/53/102 87/56/102 88/58/102
f 79/52/103 95/57/131 96/59/103
f 73/47/104 72/51/104 88/58/104
f 80/50/105 96/59/134 97/61/106
f 74/48/107 73/47/107 89/60/107
f 74/48/112 90/62/112 91/60/112
f 67/49/87 83/61/121 84/59/113
f 75/47/114 91/60/114 92/58/114
f 68/50/89 84/59/115 85/57/115
f 77/53/116 76/51/116 92/58/116
f 69/52/117 85/57/117 86/55/117
f 90/62/120 105/70/120 106/64/120
f 83/61/121 98/63/149 99/65/122
f 91/60/123 106/64/123 107/66/123
f 85/57/115 84/59/115 99/65/124
f 93/56/125 92/58/125 107/66/125
f 85/57/126 100/67/126 101/69/126
f 93/56/127 108/68/127 109/69/127
f 87/56/128 86/55/128 101/69/128
f 95/57/129 94/55/129 109/69/129
f 87/56/130 102/68/130 103/66/130
f 95/57/131 110/67/140 111/65/132
f 89/60/133 88/58/133 103/66/133
f 96/59/134 111/65/143 112/63/135
f 90/62/136 89/60/136 104/64/136
f 102/68/137 101/69/137 116/71/137
f 110/67/138 109/69/138 124/71/138
f 102/68/139 117/72/139 118/74/139
f 110/67/140 125/73/167 126/75/141
f 104/64/142 103/66/142 118/74/142
f 111/65/143 126/75/170 127/77/144
f 105/16/145 104/214/145 119/15/145
f 105/78/148 120/19/148 121/21/148
f 98/63/149 113/77/150 114/75/150
f 106/64/151 121/76/151 122/74/151
f 99/65/124 114/75/152 115/73/152
f 108/68/153 107/66/153 122/74/153
f 100/67/154 115/73/154 116/71/154
f 108/68/155 123/72/155 124/71/155
f 120/19/156 135/267/156 136/79/156
f 114/75/150 113/77/150 128/80/157
f 121/76/158 136/86/158 137/82/158
f 115/73/152 114/75/152 129/81/159
f 123/72/161 122/74/161 137/82/161
f 115/73/162 130/83/162 131/85/162
f 123/72/163 138/84/163 139/85/163
f 117/72/164 116/71/164 131/85/164
f 125/73/165 124/71/165 139/85/165
f 117/72/166 132/84/166 133/82/166
f 125/73/167 140/83/168 141/81/168
f 119/76/169 118/74/169 133/82/169
f 126/75/170 141/81/179 142/80/171
f 120/17/172 119/15/172 134/87/172
f 140/83/175 139/85/175 154/89/175
f 132/84/176 147/97/176 148/91/176
f 141/81/168 140/83/168 155/90/177
f 134/86/178 133/82/178 148/91/178
f 141/81/179 156/92/180 157/94/180
f 135/95/181 134/86/181 149/93/181
f 135/95/184 150/96/184 151/93/184
f 128/80/157 143/94/212 144/92/185
f 136/86/186 151/93/186 152/91/186
f 130/83/160 129/81/159 144/92/187
f 138/84/188 137/82/188 152/91/188
f 130/83/189 145/90/189 146/89/189
f 138/84/190 153/97/190 154/89/190
f 132/84/191 131/85/191 146/89/191
f 151/93/192 166/103/192 167/98/192
f 144/92/187 159/102/226 160/99/193
f 153/97/194 152/91/194 167/98/194
f 145/90/195 160/99/195 161/101/195
f 153/97/196 168/100/196 169/101/196
f 147/97/197 146/89/197 161/101/197
f 155/90/198 154/89/198 169/101/198
f 147/97/199 162/100/199 163/98/199
f 155/90/177 170/99/200 171/102/200
f 149/93/201 148/91/201 163/98/201
f 157/94/180 156/92/180 171/102/202
f 150/96/204 149/93/204 164/103/205
f 150/96/210 165/105/211 166/103/211
f 143/94/212 158/104/223 159/102/213
f 171/102/200 170/99/200 185/106/214
f 164/103/215 163/98/215 178/108/215
f 172/104/203 171/102/202 186/107/216
f 165/105/217 164/103/217 179/109/218
f 165/105/221 180/111/222 181/109/222
f 158/104/223 173/110/224 174/107/224
f 166/103/225 181/109/225 182/108/225
f 159/102/226 174/107/227 175/106/227
f 168/100/228 167/98/228 182/108/228
f 160/99/229 175/106/229 176/113/229
f 168/100/230 183/112/230 184/113/230
f 162/100/231 161/101/231 176/113/231
f 170/99/232 169/101/232 184/113/232
f 162/100/233 177/112/233 178/108/233
f 175/106/227 174/107/227 189/114/234
f 183/112/236 182/108/236 197/116/236
f 175/106/237 190/115/237 191/118/237
f 183/112/238 198/117/238 199/118/238
f 177/112/239 176/113/239 191/118/239
f 185/106/240 184/113/240 199/118/240
f 177/112/241 192/117/241 193/116/241
f 185/106/214 200/115/270 201/114/242
f 179/109/243 178/108/243 193/116/243
f 186/107/216 201/114/254 202/120/244
f 180/111/245 179/109/245 194/119/246
f 180/111/249 195/121/250 196/119/250
f 174/107/224 173/110/224 188/120/251
f 181/109/252 196/119/252 197/116/252
f 194/119/253 193/116/253 208/122/253
f 201/114/254 216/126/255 217/124/255
f 195/121/256 194/119/607 209/123/256
f 195/121/259 210/125/259 211/123/259
f 188/120/251 203/124/287 204/126/261
f 196/119/262 211/123/262 212/122/262
f 190/115/235 189/114/234 204/126/263
f 198/117/264 197/116/264 212/122/264
f 190/115/265 205/127/265 206/129/265
f 198/117/266 213/128/266 214/129/266
f 192/117/267 191/118/267 206/129/267
f 200/115/268 199/118/268 214/129/268
f 192/117/269 207/128/269 208/122/269
f 200/115/270 215/127/271 216/126/271
f 213/128/272 212/122/272 227/130/272
f 205/127/273 220/133/273 221/132/273
f 213/128/274 228/131/274 229/132/274
f 207/128/275 206/129/275 221/132/275
f 215/127/276 214/129/276 229/132/276
f 207/128/277 222/131/277 223/130/277
f 216/126/271 215/127/271 230/133/278
f 209/123/279 208/122/279 223/130/279
f 217/124/255 216/126/255 231/134/280
f 210/125/281 209/123/281 224/135/281
f 210/125/286 225/137/286 226/135/286
f 203/124/287 218/136/296 219/134/288
f 211/123/289 226/135/289 227/130/289
f 204/126/263 219/134/299 220/133/290
f 231/134/280 246/139/317 247/138/291
f 225/16/292 224/214/292 239/15/292
f 225/78/295 240/19/295 241/21/295
f 218/136/296 233/138/323 234/139/297
f 226/135/298 241/144/298 242/140/298
f 219/134/299 234/139/300 235/141/300
f 228/131/301 227/130/301 242/140/301
f 220/133/302 235/141/302 236/143/302
f 228/131/303 243/142/303 244/143/303
f 222/131/304 221/132/304 236/143/304
f 230/133/305 229/132/305 244/143/305
f 222/131/306 237/142/306 238/140/306
f 230/133/278 245/141/314 246/139/307
f 224/135/308 223/130/308 238/140/308
f 235/141/309 250/147/309 251/145/309
f 243/142/310 258/146/310 259/145/310
f 237/142/311 236/143/311 251/145/311
f 245/141/312 244/143/312 259/145/312
f 237/142/313 252/146/313 253/148/313
f 245/141/314 260/147/342 261/149/315
f 239/144/316 238/140/316 253/148/316
f 246/139/317 261/149/318 262/151/318
f 240/17/319 239/15/319 254/87/319
f 240/19/322 255/267/322 256/79/322
f 233/138/323 248/151/332 249/149/324
f 241/144/325 256/150/325 257/148/325
f 235/141/300 234/139/300 249/149/326
f 243/142/327 242/140/327 257/148/327
f 255/152/328 254/150/328 269/153/328
f 255/152/331 270/154/331 271/153/331
f 248/151/332 263/155/359 264/156/333
f 256/150/334 271/153/334 272/157/334
f 249/149/326 264/156/362 265/158/335
f 258/146/336 257/148/336 272/157/336
f 250/147/337 265/158/337 266/160/337
f 258/146/338 273/159/338 274/160/338
f 252/146/339 251/145/339 266/160/339
f 260/147/340 259/145/340 274/160/340
f 252/146/341 267/159/341 268/157/341
f 260/147/342 275/158/350 276/156/342
f 254/150/343 253/148/343 268/157/343
f 262/151/318 261/149/318 276/156/344
f 273/159/346 288/162/346 289/161/346
f 266/160/347 281/161/347 282/162/347
f 275/158/348 274/160/348 289/161/348
f 267/159/349 282/162/349 283/164/349
f 275/158/350 290/163/378 291/165/350
f 269/153/351 268/157/351 283/164/351
f 277/155/345 276/156/344 291/165/352
f 270/154/353 269/153/353 284/166/354
f 270/154/357 285/168/358 286/166/358
f 263/155/359 278/167/368 279/165/360
f 271/153/361 286/166/361 287/164/361
f 264/156/362 279/165/371 280/163/362
f 273/159/363 272/157/363 287/164/363
f 265/158/364 280/163/364 281/161/364
f 285/168/366 300/176/367 301/170/367
f 278/167/368 293/169/398 294/171/369
f 286/166/370 301/170/370 302/172/370
f 279/165/371 294/171/401 295/173/371
f 288/162/372 287/164/372 302/172/372
f 280/163/373 295/173/373 296/175/373
f 288/162/374 303/174/374 304/175/374
f 282/162/375 281/161/375 296/175/375
f 290/163/376 289/161/376 304/175/376
f 282/162/377 297/174/377 298/172/377
f 290/163/378 305/173/388 306/171/378
f 284/166/379 283/164/379 298/172/379
f 291/165/352 306/171/390 307/169/380
f 285/168/381 284/166/381 299/170/382
f 305/173/386 304/175/386 320/177/386
f 297/174/387 313/184/387 314/179/387
f 305/173/388 321/178/416 322/180/388
f 299/170/389 298/172/389 314/179/389
f 306/171/390 322/180/391 323/182/391
f 300/176/392 299/170/392 315/181/393
f 300/176/396 316/183/397 317/181/397
f 293/169/398 309/182/406 310/180/399
f 301/170/400 317/181/400 318/179/400
f 294/171/401 310/180/409 311/178/401
f 303/174/402 302/172/402 318/179/402
f 295/173/403 311/178/403 312/177/403
f 303/174/404 319/184/404 320/177/404
f 297/174/405 296/175/405 312/177/405
f 309/182/406 324/191/432 325/185/407
f 317/181/408 332/190/408 333/186/408
f 310/180/409 325/185/435 326/187/409
f 319/184/410 318/179/410 333/186/410
f 311/178/411 326/187/411 327/189/411
f 319/184/412 334/188/412 335/189/412
f 313/184/413 312/177/413 327/189/413
f 321/178/414 320/177/414 335/189/414
f 313/184/415 328/188/415 329/186/415
f 321/178/416 336/187/424 337/185/416
f 315/181/417 314/179/417 329/186/417
f 323/182/391 322/180/391 337/185/418
f 316/183/419 315/181/419 330/190/419
f 316/183/422 331/192/422 332/190/422
f 328/188/423 343/199/423 344/193/423
f 336/187/424 351/198/451 352/194/425
f 330/190/426 329/186/426 344/193/426
f 337/185/418 352/194/454 353/196/427
f 331/192/428 330/190/428 345/195/428
f 331/192/431 346/197/431 347/195/431
f 324/191/432 339/196/461 340/194/433
f 332/190/434 347/195/434 348/193/434
f 325/185/435 340/194/436 341/198/436
f 334/188/437 333/186/437 348/193/437
f 326/187/438 341/198/438 342/200/438
f 334/188/439 349/199/439 350/200/439
f 328/188/440 327/189/440 342/200/440
f 336/187/441 335/189/441 350/200/441
f 347/195/442 362/206/442 363/201/442
f 341/198/436 340/194/436 355/202/443
f 349/199/445 348/193/445 363/201/445
f 341/198/446 356/203/446 357/205/446
f 349/199/447 364/204/447 365/205/447
f 343/199/448 342/200/448 357/205/448
f 351/198/449 350/200/449 365/205/449
f 343/199/450 358/204/450 359/201/450
f 351/198/451 366/203/463 367/202/452
f 345/195/453 344/193/453 359/201/453
f 352/194/454 367/202/466 368/207/455
f 346/208/456 345/87/456 360/15/456
f 346/209/460 361/19/460 362/21/460
f 339/196/461 354/207/472 355/202/462
f 366/203/463 381/215/489 382/210/464
f 360/206/465 359/201/465 374/211/465
f 367/202/466 382/210/491 383/213/467
f 361/17/468 360/15/468 375/214/468
f 361/19/471 376/78/471 377/20/471
f 354/207/472 369/213/497 370/210/473
f 362/206/474 377/212/474 378/211/474
f 356/203/444 355/202/443 370/210/475
f 364/204/476 363/201/476 378/211/476
f 356/203/477 371/215/477 372/217/477
f 364/204/478 379/216/478 380/217/478
f 358/204/479 357/205/479 372/217/479
f 366/203/480 365/205/480 380/217/480
f 358/204/481 373/216/481 374/211/481
f 370/210/475 385/222/510 386/218/482
f 379/216/483 378/211/483 393/219/483
f 371/215/484 386/218/484 387/221/484
f 379/216/485 394/220/485 395/221/485
f 373/216/486 372/217/486 387/221/486
f 381/215/487 380/217/487 395/221/487
f 373/216/488 388/220/488 389/219/488
f 381/215/489 396/218/517 397/222/489
f 375/212/490 374/211/490 389/219/490
f 382/210/491 397/222/501 398/224/492
f 376/225/493 375/212/493 390/223/493
f 376/225/496 391/226/496 392/223/496
f 369/213/497 384/224/507 385/222/498
f 377/212/499 392/223/499 393/219/499
f 390/223/500 389/219/500 404/227/500
f 397/222/501 412/231/526 413/229/502
f 391/226/503 390/223/503 405/228/503
f 391/226/506 406/230/506 407/228/506
f 384/224/507 399/229/532 400/231/508
f 392/223/509 407/228/509 408/227/509
f 385/222/510 400/231/535 401/232/510
f 394/220/511 393/219/511 408/227/511
f 386/218/512 401/232/512 402/234/512
f 394/220/513 409/233/513 410/234/513
f 388/220/514 387/221/514 402/234/514
f 396/218/515 395/221/515 410/234/515
f 388/220/516 403/233/516 404/227/516
f 396/218/517 411/232/524 412/231/517
f 409/233/518 408/227/518 423/235/518
f 401/232/519 416/238/519 417/237/519
f 409/233/520 424/236/520 425/237/520
f 403/233/521 402/234/521 417/237/521
f 411/232/522 410/234/522 425/237/522
f 403/233/523 418/236/523 419/235/523
f 411/232/524 426/238/556 427/239/524
f 405/228/525 404/227/525 419/235/525
f 412/231/526 427/239/527 428/241/527
f 406/230/528 405/228/528 420/240/528
f 406/230/531 421/242/608 422/240/531
f 399/229/532 414/241/545 415/239/533
f 407/228/534 422/240/534 423/235/534
f 400/231/535 415/239/536 416/238/536
f 428/241/527 427/239/527 442/243/537
f 421/242/538 420/240/538 435/245/539
f 421/242/543 436/246/544 437/245/544
f 414/241/545 429/244/569 430/243/546
f 422/240/547 437/245/547 438/247/547
f 416/238/536 415/239/536 430/243/548
f 424/236/550 423/235/550 438/247/550
f 416/238/551 431/248/551 432/250/551
f 424/236/552 439/249/552 440/250/552
f 418/236/553 417/237/553 432/250/553
f 426/238/554 425/237/554 440/250/554
f 418/236/555 433/249/555 434/247/555
f 426/238/556 441/248/562 442/243/556
f 420/240/557 419/235/557 434/247/557
f 439/249/558 454/252/558 455/251/558
f 433/249/559 432/250/559 447/251/559
f 441/248/560 440/250/560 455/251/560
f 433/249/561 448/252/561 449/254/561
f 441/248/562 456/253/589 457/255/562
f 435/245/563 434/247/563 449/254/563
f 442/243/537 457/255/564 458/257/564
f 436/246/565 435/245/565 450/256/565
f 436/246/568 451/258/568 452/256/568
f 429/244/569 444/257/578 445/255/570
f 437/245/571 452/256/571 453/254/571
f 431/248/549 430/243/548 445/255/549
f 439/249/573 438/247/573 453/254/573
f 431/248/574 446/253/574 447/251/574
f 451/258/577 466/266/577 467/260/577
f 444/257/578 459/259/579 460/261/579
f 452/256/580 467/260/580 468/262/580
f 446/253/572 445/255/549 460/261/581
f 454/252/583 453/254/583 468/262/583
f 446/253/584 461/263/584 462/265/584
f 454/252/585 469/264/585 470/265/585
f 448/252/586 447/251/586 462/265/586
f 456/253/587 455/251/587 470/265/587
f 448/252/588 463/264/588 464/262/588
f 456/253/589 471/263/597 472/261/590
f 450/256/591 449/254/591 464/262/591
f 458/257/564 457/255/564 472/261/592
f 451/258/593 450/256/593 465/260/593
f 463/264/594 462/265/594 476/3/594
f 471/263/595 470/265/595 479/3/595
f 464/262/596 463/264/596 2/1/596
f 471/263/597 480/6/5 481/10/7
f 465/260/598 464/262/598 477/7/598
f 472/261/592 481/10/9 482/14/11
f 466/208/599 465/87/599 3/15/599
f 466/209/600 4/19/600 5/21/600
f 460/261/579 459/259/579 474/14/601
f 467/260/602 5/11/602 478/7/602
f 461/263/582 460/261/581 475/10/603
f 468/262/604 478/7/604 6/1/604
f 462/265/605 461/263/605 1/6/605
f 469/264/606 6/1/606 479/3/606
