# Blender 4.4.3
# www.blender.org
mtllib voxel_tsume.mtl
o Tsume
v -0.007633 -0.707138 0.141928
v 0.120422 -0.725743 0.145115
v -0.077604 -1.096320 0.148566
v 0.050451 -1.114925 0.151754
v -0.008320 -0.706604 0.173374
v 0.119736 -0.725208 0.176562
v -0.078291 -1.095785 0.180013
v 0.049764 -1.114390 0.183201
v -0.013620 -1.105616 0.150159
v -0.014307 -1.105081 0.181606
v -0.044787 -1.278971 0.153116
v -0.108772 -1.269675 0.151523
v -0.109459 -1.269140 0.182970
v -0.045474 -1.278436 0.184563
v -0.141303 -1.086631 0.178444
v -0.140616 -1.087165 0.146997
v -0.172470 -1.259985 0.181401
v -0.171783 -1.260520 0.149954
v -0.117257 -1.312517 0.183710
v -0.116571 -1.313051 0.152263
v -0.180269 -1.303362 0.182141
v -0.179582 -1.303897 0.150694
v -0.235892 -1.250771 0.179823
v -0.235205 -1.251306 0.148376
v -0.243691 -1.294148 0.180563
v -0.243004 -1.294682 0.149116
v 0.053346 -0.715998 0.143445
v 0.052659 -0.715463 0.174892
v 0.204141 -0.010456 -0.193513
v 0.126816 -0.220671 -0.190790
v 0.131032 0.007888 -0.151821
v 0.053708 -0.202327 -0.149099
v 0.104580 -0.215646 -0.225659
v 0.181905 -0.005431 -0.228381
v 0.031472 -0.197302 -0.183967
v 0.108796 0.012913 -0.186689
v 0.142478 0.228746 0.001592
v 0.152780 -0.429192 0.015624
v 0.053666 0.227770 0.010282
v 0.063968 -0.430169 0.024314
v 0.128022 -0.432995 -0.186308
v 0.117720 0.224944 -0.200340
v 0.039210 -0.433971 -0.177618
v 0.028908 0.223968 -0.191650
v 0.063978 0.224927 -0.161835
v 0.074280 -0.433011 -0.147804
v -0.050537 0.222372 -0.225651
v -0.040235 -0.435566 -0.211619
v 0.090430 -0.433486 -0.187119
v 0.080128 0.224453 -0.201151
v -0.023922 -0.436167 -0.258388
v -0.034224 0.221771 -0.272420
v -0.324458 -0.439701 -0.242300
v -0.323315 -0.440591 -0.294632
v -0.334760 0.218238 -0.256332
v -0.333617 0.217348 -0.308664
v -0.376440 -0.440380 -0.243421
v -0.375297 -0.441269 -0.295753
v -0.386743 0.217559 -0.257453
v -0.385599 0.216669 -0.309785
v 0.071426 0.231224 0.197203
v 0.081728 -0.426714 0.211235
v -0.045930 0.230880 0.263474
v -0.035628 -0.427058 0.277506
v 0.067310 -0.427588 0.171259
v 0.057008 0.230351 0.157228
v -0.049883 -0.428058 0.230077
v -0.060185 0.229880 0.216045
v -0.336322 -0.430469 0.300806
v -0.335178 -0.431359 0.248473
v -0.346624 0.227469 0.286774
v -0.345481 0.226580 0.234442
v -0.388304 -0.431148 0.299684
v -0.387161 -0.432038 0.247352
v -0.398606 0.226791 0.285653
v -0.397463 0.225901 0.233320
v 0.109019 0.231715 0.198014
v 0.119321 -0.426223 0.212045
v 0.020670 0.230378 0.185502
v 0.030972 -0.427560 0.199534
v 0.152872 -0.429265 0.011371
v 0.142570 0.228674 -0.002661
v 0.064524 -0.430601 -0.001141
v 0.054222 0.227337 -0.015172
v 0.195439 -0.003685 0.204841
v 0.118115 -0.213899 0.207564
v 0.110849 0.016827 0.191953
v 0.033524 -0.193388 0.194676
v 0.150429 -0.224131 0.007013
v 0.227754 -0.013917 0.004291
v 0.065839 -0.203620 -0.005875
v 0.143163 0.006595 -0.008597
v 0.225944 0.095812 0.006205
v 0.148620 -0.114403 0.008927
v 0.140890 0.116684 0.014519
v 0.063566 -0.093531 0.017241
v 0.125099 -0.111014 -0.193129
v 0.202424 0.099201 -0.195851
v 0.040046 -0.090142 -0.184815
v 0.117370 0.120073 -0.187538
v 0.193722 0.105972 0.202503
v 0.116398 -0.104243 0.205225
v 0.109132 0.126483 0.189615
v 0.031807 -0.083731 0.192337
v 0.148712 -0.114475 0.004674
v 0.226037 0.095739 0.001952
v 0.064122 -0.093963 -0.008214
v 0.141447 0.116251 -0.010936
v 0.224227 0.205468 0.003866
v 0.146903 -0.004746 0.006588
v 0.139173 0.226340 0.012180
v 0.061849 0.016126 0.014902
v 0.123382 -0.001358 -0.195468
v 0.200707 0.208857 -0.198190
v 0.038329 0.019514 -0.187154
v 0.115653 0.229729 -0.189876
v 0.192005 0.215628 0.200164
v 0.114681 0.005413 0.202886
v 0.107415 0.236140 0.187276
v 0.030090 0.025925 0.189998
v 0.146995 -0.004819 0.002336
v 0.224320 0.205396 -0.000387
v 0.062405 0.015693 -0.010552
v 0.139729 0.225908 -0.013275
v 0.171707 0.002504 0.238470
v 0.094383 -0.207710 0.241192
v 0.100505 0.019364 0.192887
v 0.023180 -0.190850 0.195609
v 0.118115 -0.213899 0.207564
v 0.195439 -0.003685 0.204841
v 0.046912 -0.197039 0.161981
v 0.124237 0.013175 0.159258
v 0.169990 0.112161 0.236131
v 0.092665 -0.098054 0.238854
v 0.098788 0.129021 0.190548
v 0.021463 -0.081194 0.193271
v 0.116398 -0.104243 0.205225
v 0.193722 0.105972 0.202503
v 0.045195 -0.087383 0.159642
v 0.122520 0.122832 0.156920
v 0.168273 0.221817 0.233793
v 0.090948 0.011602 0.236515
v 0.097071 0.238677 0.188210
v 0.019746 0.028463 0.190932
v 0.114681 0.005413 0.202886
v 0.192005 0.215628 0.200164
v 0.043478 0.022274 0.157303
v 0.120803 0.232488 0.154581
v 0.200707 0.208857 -0.198190
v 0.123382 -0.001358 -0.195468
v 0.127598 0.227201 -0.156498
v 0.050274 0.016986 -0.153776
v 0.101146 0.003667 -0.230336
v 0.178471 0.213882 -0.233058
v 0.028038 0.022011 -0.188644
v 0.105362 0.232225 -0.191366
v 0.202424 0.099201 -0.195851
v 0.125099 -0.111014 -0.193129
v 0.129315 0.117544 -0.154159
v 0.051991 -0.092670 -0.151437
v 0.102863 -0.105989 -0.227997
v 0.180188 0.104225 -0.230720
v 0.029755 -0.087646 -0.186305
v 0.107079 0.122569 -0.189028
v 0.227661 -0.013845 0.008543
v 0.150337 -0.224059 0.011266
v 0.142607 0.007028 0.016857
v 0.065283 -0.203187 0.019579
v 0.126816 -0.220671 -0.190790
v 0.204141 -0.010456 -0.193513
v 0.041763 -0.199798 -0.182477
v 0.119087 0.010416 -0.185199
v 0.162349 -0.336490 0.179471
v 0.032495 -0.442361 0.012174
v 0.101145 -0.283380 0.177019
v -0.028709 -0.389251 0.009723
v 0.169625 -0.342152 -0.153615
v 0.299479 -0.236281 0.013682
v 0.108421 -0.289042 -0.156066
v 0.238275 -0.183171 0.011230
v 0.186014 -0.309007 0.174267
v 0.204423 -0.408579 0.268456
v 0.147183 -0.300405 0.191755
v 0.165593 -0.399976 0.285944
v 0.126981 -0.488906 0.175957
v 0.108571 -0.389334 0.081767
v 0.088150 -0.480303 0.193444
v 0.069741 -0.380732 0.099255
v 0.180402 -0.310400 0.174543
v 0.128950 -0.450579 0.174228
v 0.095003 -0.289586 0.168859
v 0.043551 -0.429765 0.168545
v 0.140289 -0.453235 0.012119
v 0.191741 -0.313057 0.012433
v 0.054891 -0.432421 0.006435
v 0.106343 -0.292243 0.006750
v 0.211673 -0.312814 0.011816
v 0.165008 -0.452857 0.015868
v 0.133865 -0.291785 0.013057
v 0.087200 -0.431827 0.017108
v 0.161467 -0.455708 -0.146563
v 0.208132 -0.315665 -0.150614
v 0.083659 -0.434678 -0.145322
v 0.130324 -0.294635 -0.149374
v 0.132398 -0.288566 0.200468
v 0.085733 -0.428645 0.202388
v 0.119926 -0.285628 0.161943
v 0.073261 -0.425707 0.163863
v 0.159455 -0.448824 0.176621
v 0.206120 -0.308745 0.174701
v 0.146983 -0.445886 0.138096
v 0.193648 -0.305807 0.136176
v 0.213216 -0.314267 -0.150164
v 0.166552 -0.454346 -0.148244
v 0.199077 -0.310032 -0.112371
v 0.152412 -0.450111 -0.110450
v 0.094043 -0.435111 -0.178032
v 0.140708 -0.295032 -0.179952
v 0.079904 -0.430876 -0.140238
v 0.126568 -0.290797 -0.142159
v 0.111630 -0.391714 -0.058264
v 0.134042 -0.494400 -0.147317
v 0.073608 -0.383741 -0.077778
v 0.096020 -0.486427 -0.166831
v 0.215522 -0.417215 -0.239651
v 0.193110 -0.314529 -0.150597
v 0.177500 -0.409242 -0.259165
v 0.155088 -0.306556 -0.170112
v 0.175536 -0.587185 0.196125
v 0.178054 -0.748014 0.199555
v 0.101826 -0.588147 0.194536
v 0.104344 -0.748976 0.197966
v 0.180005 -0.749532 0.110218
v 0.177487 -0.588703 0.106788
v 0.106296 -0.750495 0.108628
v 0.103778 -0.589665 0.105198
v 0.202057 -0.588382 0.107318
v 0.204575 -0.749212 0.110748
v 0.103778 -0.589665 0.105198
v 0.106296 -0.750495 0.108628
v 0.206527 -0.750730 0.021410
v 0.204008 -0.589901 0.017980
v 0.108247 -0.752013 0.019290
v 0.105729 -0.591184 0.015860
v 0.204008 -0.589901 0.017980
v 0.206527 -0.750730 0.021410
v 0.105729 -0.591184 0.015860
v 0.108247 -0.752013 0.019290
v 0.208478 -0.752249 -0.067928
v 0.205960 -0.591419 -0.071358
v 0.110199 -0.753532 -0.070048
v 0.107681 -0.592702 -0.073478
v 0.099308 -0.427317 0.191106
v -0.146568 -0.428906 0.279687
v -0.143678 -0.613494 0.283624
v 0.107114 -0.433392 -0.166246
v 0.104030 -0.728873 0.197537
v -0.142548 -0.614373 0.231885
v 0.111835 -0.734947 -0.159814
v 0.104030 -0.728873 0.197537
v -0.146067 -0.429533 0.243016
v 0.099308 -0.427317 0.191106
v 0.064449 -0.433223 -0.125171
v -0.143177 -0.614121 0.246953
v 0.063350 -0.730129 0.154665
v 0.069171 -0.734778 -0.118740
v 0.058628 -0.428574 0.148233
v -0.032157 -0.729222 0.277273
v 0.111836 -0.734947 -0.159814
v -0.131772 -0.622758 -0.261409
v -0.036879 -0.427667 0.270842
v 0.107114 -0.433392 -0.166246
v -0.134663 -0.438170 -0.265346
v -0.132873 -0.622139 -0.224751
v -0.132902 -0.621879 -0.209670
v -0.135763 -0.437551 -0.228688
v -0.135793 -0.437291 -0.213607
v -0.021157 -0.738111 -0.245357
v -0.025879 -0.436556 -0.251788
v -0.132660 -0.621765 -0.224684
v -0.135465 -0.437546 -0.228611
v 0.107114 -0.433392 -0.166246
v 0.107114 -0.433392 -0.166246
v -0.132575 -0.622133 -0.224649
v 0.111835 -0.734947 -0.159814
v 0.104030 -0.728873 0.197537
v -0.145649 -0.430033 0.242940
v 0.104030 -0.728873 0.197537
v -0.142875 -0.614119 0.246863
v -0.145766 -0.429530 0.242952
v 0.104030 -0.728873 0.197537
v 0.099308 -0.427317 0.191106
v 0.099308 -0.427317 0.191105
v -0.030347 -0.730685 0.191266
v -0.022965 -0.736650 -0.159431
v -0.022232 -0.737242 -0.194268
v -0.031080 -0.730093 0.226120
v -0.030923 -0.730091 0.226073
v -0.030924 -0.730091 0.226087
v 0.181390 -0.591740 -0.071888
v 0.183908 -0.752570 -0.068458
v 0.107681 -0.592702 -0.073478
v 0.110199 -0.753532 -0.070048
v 0.185860 -0.754088 -0.157796
v 0.183342 -0.593259 -0.161226
v 0.112150 -0.755050 -0.159386
v 0.109632 -0.594221 -0.162816
v 0.033590 -0.714233 -0.045862
v 0.161646 -0.732838 -0.042674
v -0.048001 -1.168045 -0.038121
v 0.080055 -1.186650 -0.034933
v 0.032903 -0.713699 -0.014415
v 0.160959 -0.732304 -0.011227
v -0.048688 -1.167511 -0.006674
v 0.079368 -1.186115 -0.003486
v 0.015984 -1.177341 -0.036528
v 0.015297 -1.176807 -0.005081
v -0.007367 -1.307217 -0.034313
v -0.071351 -1.297921 -0.035906
v -0.072038 -1.297387 -0.004459
v -0.008054 -1.306683 -0.002866
v -0.111699 -1.158356 -0.008243
v -0.111012 -1.158890 -0.039689
v -0.135050 -1.288232 -0.006027
v -0.134363 -1.288767 -0.037474
v -0.079837 -1.340764 -0.003719
v -0.079150 -1.341298 -0.035166
v -0.142849 -1.331609 -0.005287
v -0.142162 -1.332144 -0.036734
v -0.198472 -1.279018 -0.007606
v -0.197785 -1.279552 -0.039053
v -0.206271 -1.322395 -0.006866
v -0.205584 -1.322929 -0.038313
v 0.094569 -0.723093 -0.044344
v 0.093882 -0.722558 -0.012897
v -0.001451 -0.711949 -0.141095
v 0.126605 -0.730554 -0.137907
v -0.071422 -1.101131 -0.134456
v 0.056634 -1.119735 -0.131268
v -0.002138 -0.711414 -0.109648
v 0.125918 -0.730019 -0.106460
v -0.072109 -1.100596 -0.103009
v 0.055947 -1.119201 -0.099822
v -0.007438 -1.110427 -0.132863
v -0.008124 -1.109892 -0.101416
v -0.038605 -1.283781 -0.129906
v -0.102590 -1.274485 -0.131499
v -0.103276 -1.273951 -0.100052
v -0.039292 -1.283247 -0.098459
v -0.135121 -1.091441 -0.104578
v -0.134434 -1.091976 -0.136025
v -0.166288 -1.264796 -0.101621
v -0.165601 -1.265331 -0.133068
v -0.111075 -1.317327 -0.099312
v -0.110388 -1.317862 -0.130759
v -0.174087 -1.308173 -0.100881
v -0.173400 -1.308707 -0.132328
v -0.229710 -1.255582 -0.103199
v -0.229023 -1.256116 -0.134646
v -0.237509 -1.298958 -0.102459
v -0.236822 -1.299493 -0.133906
v 0.059528 -0.720808 -0.139577
v 0.058841 -0.720274 -0.108130
v 0.031529 -0.712630 0.048479
v 0.159585 -0.731234 0.051667
v -0.050062 -1.166441 0.056220
v 0.077994 -1.185046 0.059407
v 0.030842 -0.712095 0.079926
v 0.158898 -0.730700 0.083113
v -0.050749 -1.165907 0.087667
v 0.077307 -1.184512 0.090854
v 0.013923 -1.175738 0.057813
v 0.013236 -1.175203 0.089259
v -0.009428 -1.305614 0.060028
v -0.073412 -1.296318 0.058435
v -0.074099 -1.295783 0.089882
v -0.010114 -1.305079 0.091475
v -0.113760 -1.156752 0.086098
v -0.113073 -1.157287 0.054651
v -0.137111 -1.286628 0.088314
v -0.136424 -1.287163 0.056867
v -0.081898 -1.339160 0.090622
v -0.081211 -1.339694 0.059175
v -0.144909 -1.330005 0.089053
v -0.144222 -1.330540 0.057607
v -0.200533 -1.277414 0.086735
v -0.199846 -1.277949 0.055288
v -0.208331 -1.320791 0.087475
v -0.207644 -1.321326 0.056028
v 0.092508 -0.721489 0.049997
v 0.091821 -0.720955 0.081444
v 0.171268 -0.085535 -0.011110
v 0.245793 -0.105401 -0.009471
v 0.138620 -0.185981 -0.008669
v 0.216075 -0.206627 -0.006966
v 0.172415 -0.085644 0.028103
v 0.246939 -0.105510 0.029742
v 0.139766 -0.186089 0.030544
v 0.217221 -0.206735 0.032247
v 0.230934 -0.156014 -0.008219
v 0.232080 -0.156122 0.030994
v 0.282028 -0.169741 0.032101
v 0.296887 -0.119128 0.030849
v 0.295741 -0.119020 -0.008364
v 0.280882 -0.169632 -0.007112
v 0.262876 -0.051226 0.028398
v 0.261729 -0.051118 -0.010814
v 0.312824 -0.064845 0.029505
v 0.311677 -0.064736 -0.009708
v 0.182205 0.074661 -0.016108
v 0.284253 0.047249 -0.013858
v 0.151175 -0.016285 -0.013919
v 0.257237 -0.044774 -0.011581
v 0.183314 0.074556 0.021842
v 0.285363 0.047144 0.024091
v 0.152285 -0.016390 0.024030
v 0.258347 -0.044879 0.026369
v 0.270745 0.001238 -0.012720
v 0.271855 0.001133 0.025230
v 0.340288 -0.017526 0.026746
v 0.353796 0.028486 0.025608
v 0.352687 0.028591 -0.012342
v 0.339179 -0.017421 -0.011203
v 0.299850 0.096493 0.022870
v 0.298741 0.096598 -0.015080
v 0.368284 0.077834 0.024387
v 0.367175 0.077939 -0.013563
v 0.180328 0.214477 -0.017880
v 0.319210 0.177023 -0.014814
v 0.147851 0.123926 -0.015723
v 0.292194 0.085000 -0.012537
v 0.181370 0.214378 0.017768
v 0.320252 0.176924 0.020834
v 0.148893 0.123827 0.019925
v 0.293236 0.084901 0.023111
v 0.305702 0.131011 -0.013676
v 0.306744 0.130913 0.021972
v 0.399904 0.105512 0.024037
v 0.413413 0.151524 0.022898
v 0.412370 0.151623 -0.012750
v 0.398862 0.105611 -0.011611
v 0.334739 0.226273 0.019613
v 0.333697 0.226371 -0.016035
v 0.427900 0.200872 0.021677
v 0.426858 0.200971 -0.013971
vn 0.0218 -0.0210 -0.9995
vn -0.1441 -0.9895 0.0137
vn -0.0218 0.0210 0.9995
vn 0.1441 0.9895 -0.0137
vn -0.9840 0.1765 -0.0245
vn 0.9840 -0.1765 0.0245
vn -0.2373 -0.9714 0.0113
vn 0.4591 -0.1575 0.8743
vn 0.2373 0.9714 -0.0113
vn -0.4591 0.1575 -0.8743
vn 0.7855 -0.2960 -0.5436
vn -0.7855 0.2960 0.5436
vn 0.0127 -0.9998 0.0173
vn 0.0971 0.0227 0.9950
vn -0.0127 0.9998 -0.0173
vn -0.0971 -0.0227 -0.9950
vn 0.9925 0.0129 -0.1219
vn -0.9925 -0.0129 0.1219
vn -0.4869 0.0110 0.8734
vn 0.5291 -0.0098 -0.8485
vn 0.9249 0.0226 0.3796
vn -0.1076 0.0195 0.9940
vn 0.1204 -0.0193 -0.9925
vn -0.9996 -0.0161 -0.0216
vn 0.4915 0.0263 0.8705
vn -0.4483 -0.0261 -0.8935
vn 0.9406 0.0075 -0.3394
vn -0.0641 -0.0223 -0.9977
vn 0.0770 0.0225 0.9968
vn 0.7178 -0.6957 0.0275
vn 0.6977 0.7164 0.0031
vn 0.7160 -0.6975 0.0275
vn -0.1405 0.0189 0.9899
vn 0.1405 -0.0189 -0.9899
vn 0.9862 0.0190 0.1646
vn -0.9862 -0.0190 -0.1646
vn -0.1355 0.0626 0.9888
vn 0.1355 -0.0626 -0.9888
vn 0.9261 -0.3385 0.1665
vn -0.9261 0.3385 -0.1665
vn 0.0922 -0.0210 0.9955
vn -0.0922 0.0210 -0.9955
vn 0.9319 -0.3443 -0.1143
vn -0.9319 0.3443 0.1143
vn -0.4961 0.1934 0.8465
vn 0.4961 -0.1934 -0.8465
vn 0.7617 -0.2726 0.5877
vn -0.7617 0.2726 -0.5877
vn -0.4492 -0.5501 -0.7040
vn -0.4813 -0.5222 0.7040
vn 0.4492 0.5501 0.7040
vn 0.4813 0.5222 -0.7040
vn 0.6107 -0.7914 0.0268
vn -0.6107 0.7914 -0.0268
vn 0.0973 -0.7904 0.6049
vn 0.4247 0.6624 0.6172
vn -0.0973 0.7904 -0.6049
vn -0.4247 -0.6624 -0.6172
vn 0.8418 -0.2806 -0.4611
vn -0.8418 0.2806 0.4611
vn -0.2368 -0.9716 -0.0006
vn -0.0615 0.0203 0.9979
vn 0.2368 0.9716 0.0006
vn 0.0615 -0.0203 -0.9979
vn 0.9363 -0.3438 0.0711
vn -0.9363 0.3438 -0.0711
vn -0.2605 -0.9652 0.0226
vn 0.0218 0.0217 0.9995
vn 0.2605 0.9652 -0.0226
vn -0.0218 -0.0217 -0.9995
vn 0.9485 -0.3165 -0.0151
vn -0.9485 0.3165 0.0151
vn -0.2605 -0.9654 0.0107
vn -0.8994 0.3039 0.3143
vn 0.2605 0.9654 -0.0107
vn 0.8994 -0.3039 -0.3143
vn 0.3068 -0.0892 0.9476
vn -0.3068 0.0892 -0.9476
vn 0.8853 -0.2899 0.3637
vn -0.8853 0.2899 -0.3637
vn 0.3475 -0.1285 -0.9288
vn -0.3475 0.1285 0.9288
vn 0.1226 -0.8120 -0.5706
vn -0.4532 -0.6384 0.6221
vn -0.1226 0.8120 0.5706
vn 0.4532 0.6384 -0.6221
vn 0.8215 -0.2605 0.5072
vn -0.8215 0.2605 -0.5072
vn 0.9996 0.0161 0.0216
vn -0.7204 -0.6936 -0.0039
vn 0.0338 -0.3677 -0.9293
vn -0.0323 0.9092 -0.4151
vn 0.3754 -0.0147 -0.9268
vn 0.3251 -0.0152 -0.9456
vn -0.0000 -0.0000 -0.0000
vn -0.4893 -0.1936 -0.8504
vn -0.0000 0.2567 -0.9665
vn 0.1239 -0.0192 -0.9921
vn 0.3939 -0.9191 -0.0000
vn -0.7340 -0.1545 -0.6614
vn -0.0000 1.0000 -0.0000
vn 0.7034 -0.0018 -0.7108
vn 0.0801 0.0225 0.9965
vn 0.5050 0.0263 0.8627
vn -0.3784 -0.9130 -0.1522
vn -0.7214 -0.6925 -0.0034
vn -0.7214 -0.6925 -0.0040
vn -0.7203 -0.6937 -0.0034
vn -0.7200 -0.6940 -0.0056
vn -0.0127 0.9996 -0.0237
vn 0.0143 -0.0289 -0.9995
vn -0.2577 -0.9662 0.0049
vn -0.0143 0.0289 0.9995
vn 0.2577 0.9662 -0.0049
vn -0.9504 0.3096 0.0286
vn 0.9589 -0.2822 -0.0288
vn -0.2631 -0.9647 0.0050
vn 0.2632 0.9647 -0.0050
vn -0.9589 0.2822 0.0288
vn -0.2595 -0.9657 0.0049
vn 0.2595 0.9657 -0.0049
vn -0.9458 0.3234 0.0285
vn 0.2631 0.9647 -0.0050
vn -0.2605 -0.9655 0.0049
vn 0.2605 0.9655 -0.0049
vn -0.9407 0.3381 0.0284
vn -0.0078 -0.0551 0.9985
vn -0.0000 0.0268 0.9996
vn 0.6959 0.7181 0.0030
vn 0.0328 -0.9995 -0.0000
vn 0.0282 0.1094 0.9936
vn 0.0129 -0.9998 0.0173
vn 0.0126 -0.9998 0.0173
vn 0.2785 -0.9604 -0.0000
vn 0.2069 0.0241 0.9781
vn 0.7196 0.6943 0.0066
vn 0.2061 0.0240 0.9782
vn 0.2812 0.1005 0.9544
vn 0.2830 0.0247 0.9588
vn 0.2068 0.0241 0.9781
vn -0.0000 -0.0000 1.0000
vn -0.0268 0.9996 -0.0000
vn -0.0128 0.9998 -0.0173
vn -0.0000 0.7071 -0.7071
vn -0.0234 0.9997 -0.0000
vn -0.0000 0.1644 -0.9864
vn 0.4270 -0.0137 -0.9041
vn 0.3245 -0.0150 -0.9458
vn 0.2493 -0.0167 -0.9683
vn -0.9996 -0.0157 -0.0216
vn 0.5411 -0.0095 -0.8409
vn 0.0559 -0.1466 0.9876
vn -0.9996 -0.0155 -0.0216
vn 0.7649 -0.0034 -0.6441
vn -0.1961 -0.5883 0.7845
vn -0.7215 -0.6924 -0.0040
vn -0.7206 -0.6932 -0.0185
vn -0.7202 -0.6938 -0.0039
vn -0.0000 0.0502 0.9987
vn 0.0156 0.0098 -0.9998
vn 0.1640 -0.0683 -0.9841
vn -0.0000 0.0296 0.9996
vn -0.0766 0.0479 0.9959
vt 0.328125 0.375000
vt 0.343750 0.515625
vt 0.312500 0.515625
vt 0.328125 0.468750
vt 0.328125 0.515625
vt 0.343750 0.375000
vt 0.312500 0.375000
vt 0.343750 0.473437
vt 0.328125 0.473437
vt 0.312500 0.515672
vt 0.328125 0.578125
vt 0.312500 0.578125
vt 0.328125 0.562527
vt 0.312500 0.562527
vt 0.328125 0.515666
vt 0.312500 0.515666
vt 0.328125 0.515672
vt 0.296875 0.578125
vt 0.296875 0.515666
vt 0.296875 0.515672
vt 0.296875 0.578152
vt 0.312500 0.593750
vt 0.296875 0.593750
vt 0.281250 0.593750
vt 0.281250 0.578152
vt 0.312500 0.578152
vt 0.875000 0.718750
vt 0.890625 0.750000
vt 0.875000 0.750000
vt 0.687500 0.843750
vt 0.781250 0.875000
vt 0.687500 0.875000
vt 0.296875 0.093750
vt 0.281250 0.125000
vt 0.281250 0.093750
vt 0.781250 0.812500
vt 0.687500 0.812500
vt 0.015625 0.156250
vt 0.000000 0.062500
vt 0.015625 0.062500
vt 0.843750 0.906250
vt 0.859375 1.000000
vt 0.859375 0.906250
vt 0.562500 0.218750
vt 0.640625 0.250000
vt 0.562500 0.250000
vt 0.687500 0.781250
vt 0.406250 0.812500
vt 0.406250 0.781250
vt 0.765625 0.218750
vt 0.687500 0.250000
vt 0.687500 0.218750
vt 0.406250 0.750000
vt 0.000000 1.000000
vt 0.078125 0.718750
vt 0.078125 1.000000
vt 0.171875 0.718750
vt 0.093750 1.000000
vt 0.171875 1.000000
vt 0.093750 0.078125
vt 0.109375 0.125000
vt 0.093750 0.125000
vt 0.625000 0.578125
vt 0.343750 0.625000
vt 0.343750 0.578125
vt 0.890625 0.828125
vt 0.875000 0.875000
vt 0.875000 0.828125
vt 0.406250 0.953125
vt 0.687500 1.000000
vt 0.406250 1.000000
vt 0.375000 0.375000
vt 0.390625 0.093750
vt 0.390625 0.375000
vt 0.343750 0.584277
vt 0.625000 0.584277
vt 0.890625 0.834277
vt 0.875000 0.834277
vt 0.093750 0.084277
vt 0.109375 0.084277
vt 0.687500 0.959277
vt 0.406250 0.959277
vt 0.421875 0.093750
vt 0.406250 0.375000
vt 0.421875 0.375000
vt 0.890625 0.765625
vt 0.875000 0.812500
vt 0.875000 0.765625
vt 0.687500 0.890625
vt 0.406250 0.937500
vt 0.406250 0.890625
vt 0.250000 0.078125
vt 0.265625 0.125000
vt 0.250000 0.125000
vt 0.406250 0.828125
vt 0.406250 0.875000
vt 0.625000 0.593750
vt 0.640625 0.312500
vt 0.640625 0.593750
vt 0.890625 0.771777
vt 0.875000 0.771777
vt 0.265625 0.084277
vt 0.250000 0.084277
vt 0.687500 0.834277
vt 0.406250 0.834277
vt 0.406250 0.896777
vt 0.687500 0.896777
vt 0.453125 0.093750
vt 0.437500 0.375000
vt 0.453125 0.375000
vt 0.500000 0.500000
vt 0.078125 0.187500
vt 0.000000 0.218750
vt 0.000000 0.187500
vt 0.687500 0.718750
vt 0.406250 0.718750
vt 0.093750 0.187500
vt 0.171875 0.218750
vt 0.093750 0.218750
vt 0.406250 0.687500
vt 0.187500 1.000000
vt 0.265625 0.718750
vt 0.265625 1.000000
vt 0.078125 0.437500
vt 0.000000 0.718750
vt 0.265625 0.187500
vt 0.187500 0.218750
vt 0.187500 0.187500
vt 0.781250 0.750000
vt 0.687500 0.750000
vt 0.781250 0.781250
vt 0.859375 0.812500
vt 0.781250 0.687500
vt 0.687500 0.687500
vt 0.187500 0.468750
vt 0.265625 0.375000
vt 0.265625 0.468750
vt 0.343750 0.468750
vt 0.421875 0.468750
vt 0.859375 0.781250
vt 0.468750 0.281250
vt 0.562500 0.312500
vt 0.468750 0.312500
vt 0.859375 0.718750
vt 0.781250 0.718750
vt 0.781250 0.312500
vt 0.687500 0.343750
vt 0.687500 0.312500
vt 0.515625 0.468750
vt 0.515625 0.375000
vt 0.531250 0.468750
vt 0.609375 0.562500
vt 0.609375 0.468750
vt 0.359375 0.187500
vt 0.281250 0.218750
vt 0.281250 0.187500
vt 0.687500 0.281250
vt 0.250000 0.250000
vt 0.156250 0.281250
vt 0.156250 0.250000
vt 0.609375 0.375000
vt 0.078125 0.343750
vt 0.000000 0.437500
vt 0.468750 0.187500
vt 0.546875 0.218750
vt 0.468750 0.218750
vt 0.343750 0.281250
vt 0.250000 0.281250
vt 0.859375 0.437500
vt 0.781250 0.468750
vt 0.781250 0.437500
vt 0.812500 0.656250
vt 0.718750 0.687500
vt 0.718750 0.656250
vt 0.171875 0.406250
vt 0.093750 0.312500
vt 0.171875 0.312500
vt 0.187500 0.281250
vt 0.265625 0.281250
vt 0.640625 0.187500
vt 0.562500 0.187500
vt 0.718750 0.625000
vt 0.781250 0.406250
vt 0.812500 0.593750
vt 0.718750 0.593750
vt 0.281250 0.375000
vt 0.359375 0.281250
vt 0.359375 0.375000
vt 0.703125 0.593750
vt 0.625000 0.687500
vt 0.703125 0.687500
vt 0.890625 0.687500
vt 0.875000 0.687500
vt 0.718750 0.562500
vt 0.875000 0.656250
vt 0.812500 0.531250
vt 0.718750 0.531250
vt 0.031250 0.156250
vt 0.046875 0.062500
vt 0.046875 0.156250
vt 0.140625 0.062500
vt 0.125000 0.156250
vt 0.140625 0.156250
vt 0.890625 0.625000
vt 0.875000 0.625000
vt 0.468750 0.250000
vt 0.562500 0.281250
vt 0.875000 0.593750
vt 0.812500 0.500000
vt 0.718750 0.500000
vt 0.156250 0.156250
vt 0.171875 0.062500
vt 0.171875 0.156250
vt 0.203125 0.062500
vt 0.187500 0.156250
vt 0.203125 0.156250
vt 0.890625 0.562500
vt 0.875000 0.562500
vt 0.718750 0.468750
vt 0.875000 0.500000
vt 0.890625 0.531250
vt 0.875000 0.531250
vt 0.781250 0.250000
vt 0.218750 0.156250
vt 0.234375 0.062500
vt 0.234375 0.156250
vt 0.328125 0.062500
vt 0.312500 0.156250
vt 0.328125 0.156250
vt 0.531250 0.093750
vt 0.546875 0.125000
vt 0.531250 0.125000
vt 0.750000 0.968750
vt 0.843750 1.000000
vt 0.750000 1.000000
vt 0.890625 0.437500
vt 0.875000 0.468750
vt 0.875000 0.437500
vt 0.843750 0.937500
vt 0.750000 0.937500
vt 0.359375 0.156250
vt 0.343750 0.062500
vt 0.359375 0.062500
vt 0.843750 0.562500
vt 0.859375 0.656250
vt 0.859375 0.562500
vt 0.562500 0.093750
vt 0.578125 0.125000
vt 0.562500 0.125000
vt 0.750000 0.906250
vt 0.890625 0.406250
vt 0.875000 0.406250
vt 0.093750 0.250000
vt 0.484375 0.156250
vt 0.468750 0.062500
vt 0.484375 0.062500
vt 0.500000 0.062500
vt 0.515625 0.156250
vt 0.515625 0.062500
vt 0.781250 0.843750
vt 0.859375 0.875000
vt 0.515625 0.562500
vt 0.437500 0.468750
vt 0.093750 0.406250
vt 0.171875 0.500000
vt 0.843750 0.875000
vt 0.750000 0.875000
vt 0.281250 0.250000
vt 0.187500 0.250000
vt 0.375000 0.250000
vt 0.093750 0.593750
vt 0.187500 0.500000
vt 0.187500 0.593750
vt 0.343750 0.562500
vt 0.437500 0.562500
vt 0.812500 0.234375
vt 0.875000 0.250000
vt 0.812500 0.250000
vt 0.843750 0.890625
vt 0.906250 0.906250
vt 0.906250 0.546875
vt 0.843750 0.546875
vt 0.656250 0.140625
vt 0.593750 0.156250
vt 0.593750 0.140625
vt 0.468750 0.625000
vt 0.468750 0.687500
vt 0.531250 0.625000
vt 0.531250 0.687500
vt 0.062500 0.250000
vt 0.000000 0.281250
vt 0.000000 0.250000
vt 0.781250 0.375000
vt 0.843750 0.406250
vt 0.843750 0.343750
vt 0.781250 0.343750
vt 0.593750 0.625000
vt 0.593750 0.687500
vt 0.531250 0.312500
vt 0.468750 0.375000
vt 0.531250 0.375000
vt 0.656250 0.187500
vt 0.718750 0.218750
vt 0.656250 0.218750
vt 0.843750 0.281250
vt 0.781250 0.281250
vt 0.781250 0.187500
vt 0.718750 0.187500
vt 0.593750 0.312500
vt 0.593750 0.375000
vt 0.062500 0.281250
vt 0.000000 0.343750
vt 0.062500 0.343750
vt 0.593750 0.109375
vt 0.625000 0.125000
vt 0.593750 0.125000
vt 0.843750 0.390625
vt 0.906250 0.406250
vt 0.656250 0.109375
vt 0.625000 0.109375
vt 0.906250 0.359375
vt 0.843750 0.375000
vt 0.843750 0.359375
vt 0.625000 0.625000
vt 0.593750 0.250000
vt 0.687500 0.109375
vt 0.656250 0.125000
vt 0.718750 0.156250
vt 0.656250 0.156250
vt 0.718750 0.125000
vt 0.687500 0.125000
vt 0.906250 0.328125
vt 0.843750 0.328125
vt 0.656250 0.312500
vt 0.625000 0.250000
vt 0.656250 0.250000
vt 0.781250 0.218750
vt 0.812500 0.281250
vt 0.812500 0.218750
vt 0.906250 0.296875
vt 0.843750 0.312500
vt 0.843750 0.296875
vt 0.718750 0.140625
vt 0.781250 0.156250
vt 0.781250 0.140625
vt 0.843750 0.156250
vt 0.906250 0.203125
vt 0.843750 0.218750
vt 0.843750 0.203125
vt 0.656250 0.531250
vt 0.656250 0.468750
vt 0.156250 0.312500
vt 0.843750 0.187500
vt 0.343750 0.250000
vt 0.375000 0.281250
vt 0.000000 0.156250
vt 0.062500 0.187500
vt 0.125000 0.125000
vt 0.125000 0.187500
vt 0.875000 0.156250
vt 0.843750 0.125000
vt 0.250000 0.187500
vt 0.312500 0.125000
vt 0.312500 0.187500
vt 0.906250 0.968750
vt 0.875000 1.000000
vt 0.875000 0.968750
vt 0.375000 0.156250
vt 0.875000 0.937500
vt 0.812500 0.687500
vt 0.843750 0.593750
vt 0.843750 0.656250
vt 0.843750 0.531250
vt 0.656250 0.451543
vt 0.673616 0.461494
vt 0.777279 0.437552
vt 0.667466 0.450501
vt 0.660221 0.437552
vt 0.763877 0.461468
vt 0.781250 0.451508
vt 0.781250 0.468750
vt 0.656250 0.437500
vt 0.656250 0.406250
vt 0.656250 0.406288
vt 0.764635 0.400925
vt 0.672869 0.400906
vt 0.660228 0.375038
vt 0.781250 0.375000
vt 0.656250 0.375000
vt 0.704888 0.343790
vt 0.704735 0.343750
vt 0.781250 0.343788
vt 0.281250 0.875000
vt 0.281250 1.000000
vt 0.281250 1.000000
vt 0.218750 0.642235
vt 0.093750 0.718750
vt 0.218750 0.718750
vt 0.734375 0.125000
vt 0.736021 0.118864
vt 0.765625 0.125000
vt 0.750000 0.113906
vt 0.781250 0.125000
vt 0.642388 0.176406
vt 0.642235 0.176398
vt 0.187500 0.593750
vt 0.203125 0.468750
vt 0.203125 0.593750
vt 0.218750 0.517235
vt 0.218750 0.593750
vt 0.906250 0.250000
vt 0.906250 0.250000
vt 0.795265 0.187500
vt 0.718750 0.176406
vt 0.718959 0.176398
vt 0.812500 0.125000
vt 0.937500 0.281250
vt 0.937500 0.281250
vt 0.062500 0.267235
vt 0.078125 0.218750
vt 0.093750 0.343750
vt 0.750000 0.113898
vt 0.781250 0.437552
vt 0.890625 0.250000
vt 0.875000 0.238898
vt 0.889042 0.243887
vt 0.781250 0.420321
vt 0.781250 0.420313
vt 0.093750 0.093750
vt 0.062500 0.125000
vt 0.062500 0.093750
vt 0.531250 0.156250
vt 0.468750 0.156250
vt 0.875000 0.906250
vt 0.906250 0.937500
vt 0.531250 0.187500
vt 0.593750 0.187500
vt 0.390625 0.781250
vt 0.406250 0.625000
vt 0.390625 0.625000
vt 0.390625 0.734375
vt 0.406250 0.734375
vt 0.375000 0.625000
vt 0.375000 0.781250
vt 0.375000 0.781297
vt 0.390625 0.828125
vt 0.375000 0.828125
vt 0.390625 0.812527
vt 0.375000 0.812527
vt 0.390625 0.781291
vt 0.375000 0.781291
vt 0.390625 0.781297
vt 0.359375 0.828125
vt 0.359375 0.781291
vt 0.359375 0.781297
vt 0.359375 0.828152
vt 0.375000 0.843750
vt 0.359375 0.843750
vt 0.343750 0.843750
vt 0.343750 0.828152
vt 0.375000 0.828152
vt 0.328125 0.625000
vt 0.343750 0.765625
vt 0.328125 0.765625
vt 0.328125 0.718750
vt 0.312500 0.625000
vt 0.343750 0.723437
vt 0.328125 0.723437
vt 0.312500 0.765625
vt 0.312500 0.765672
vt 0.328125 0.828125
vt 0.312500 0.828125
vt 0.328125 0.812527
vt 0.312500 0.812527
vt 0.328125 0.765666
vt 0.312500 0.765666
vt 0.328125 0.765672
vt 0.296875 0.828125
vt 0.296875 0.765666
vt 0.296875 0.765672
vt 0.296875 0.828152
vt 0.312500 0.843750
vt 0.296875 0.843750
vt 0.281250 0.843750
vt 0.281250 0.828152
vt 0.312500 0.828152
vt 0.265625 0.625000
vt 0.281250 0.468750
vt 0.250000 0.468750
vt 0.281250 0.625000
vt 0.265625 0.578125
vt 0.281250 0.578125
vt 0.250000 0.625000
vt 0.250000 0.625047
vt 0.265625 0.671875
vt 0.250000 0.671875
vt 0.265625 0.656277
vt 0.250000 0.656277
vt 0.265625 0.625041
vt 0.250000 0.625041
vt 0.265625 0.625047
vt 0.234375 0.671875
vt 0.234375 0.625041
vt 0.234375 0.625047
vt 0.234375 0.671902
vt 0.250000 0.687500
vt 0.234375 0.687500
vt 0.218750 0.687500
vt 0.218750 0.671902
vt 0.250000 0.671902
vt 0.718750 0.906250
vt 0.718750 0.921875
vt 0.687500 0.937500
vt 0.703125 0.921875
vt 0.703125 0.906250
vt 0.718750 0.937500
vt 0.687500 0.906250
vt 0.125000 0.500000
vt 0.375000 0.750000
vt 0.125000 0.750000
vt 0.734375 0.890625
vt 0.718750 0.890625
vt 0.734375 0.906250
vt 0.734375 0.921875
vt 0.890625 0.718750
vt 0.296875 0.125000
vt 0.640625 0.218750
vt 0.765625 0.250000
vt 0.109375 0.078125
vt 0.890625 0.875000
vt 0.687500 0.953125
vt 0.375000 0.093750
vt 0.406250 0.093750
vt 0.890625 0.812500
vt 0.265625 0.078125
vt 0.687500 0.828125
vt 0.625000 0.312500
vt 0.437500 0.093750
vt 0.171875 0.187500
vt 0.187500 0.718750
vt 0.265625 0.218750
vt 0.187500 0.375000
vt 0.859375 0.750000
vt 0.531250 0.562500
vt 0.359375 0.218750
vt 0.859375 0.687500
vt 0.546875 0.187500
vt 0.859375 0.468750
vt 0.812500 0.625000
vt 0.859375 0.406250
vt 0.281250 0.281250
vt 0.812500 0.562500
vt 0.890625 0.656250
vt 0.031250 0.062500
vt 0.125000 0.062500
vt 0.890625 0.593750
vt 0.156250 0.062500
vt 0.187500 0.062500
vt 0.812500 0.468750
vt 0.890625 0.500000
vt 0.218750 0.062500
vt 0.312500 0.062500
vt 0.546875 0.093750
vt 0.843750 0.968750
vt 0.890625 0.468750
vt 0.343750 0.156250
vt 0.578125 0.093750
vt 0.500000 0.156250
vt 0.859375 0.843750
vt 0.093750 0.500000
vt 0.375000 0.218750
vt 0.875000 0.234375
vt 0.906250 0.890625
vt 0.906250 0.562500
vt 0.062500 0.218750
vt 0.906250 0.390625
vt 0.906250 0.375000
vt 0.718750 0.109375
vt 0.906250 0.343750
vt 0.906250 0.312500
vt 0.843750 0.140625
vt 0.906250 0.218750
vt 0.656250 0.593750
vt 0.187500 0.312500
vt 0.062500 0.156250
vt 0.875000 0.187500
vt 0.875000 0.125000
vt 0.250000 0.156250
vt 0.906250 1.000000
vt 0.375000 0.187500
vt 0.656250 0.468750
vt 0.656250 0.451563
vt 0.770043 0.450464
vt 0.732765 0.406250
vt 0.781250 0.420293
vt 0.732765 0.406295
vt 0.656459 0.406294
vt 0.656250 0.375038
vt 0.704735 0.343804
vt 0.093750 0.642235
vt 0.750000 0.125000
vt 0.642235 0.187500
vt 0.795265 0.176398
vt 0.796875 0.125000
vt 0.812500 0.113906
vt 0.343750 0.718750
vt 0.375000 0.500000
s 0
usemtl Main
f 27/1/1 4/2/1 3/3/1
f 4/2/2 10/4/2 9/5/2
f 10/5/3 6/6/3 5/7/3
f 28/5/4 2/8/4 27/9/4
f 3/7/5 5/5/5 1/3/5
f 4/2/6 6/1/6 8/5/6
f 3/10/1 11/11/1 12/12/1
f 11/13/2 13/12/2 12/14/2
f 10/15/6 11/12/6 9/16/6
f 7/17/3 14/12/3 10/10/3
f 3/16/4 15/18/4 7/19/4
f 15/19/5 18/12/5 17/18/5
f 13/20/3 15/12/3 17/18/3
f 12/10/1 16/18/1 3/20/1
f 18/21/1 20/22/1 22/23/1
f 20/21/2 21/22/2 22/23/2
f 22/21/1 24/24/1 18/25/1
f 17/26/3 19/23/3 13/21/3
f 13/26/6 20/23/6 12/21/6
f 23/25/5 26/23/5 25/24/5
f 22/25/2 25/23/2 26/24/2
f 21/25/3 23/23/3 25/24/3
f 18/21/4 23/24/4 17/25/4
f 5/5/4 27/8/4 1/9/4
s 1
f 32/27/7 33/28/7 30/29/7
f 31/30/8 30/31/8 29/32/8
f 31/33/9 34/34/9 36/35/9
f 36/36/10 33/30/10 35/37/10
f 34/38/11 30/39/11 33/40/11
f 32/41/12 36/42/12 35/43/12
f 40/44/13 41/45/13 38/46/13
f 40/47/14 37/48/14 39/49/14
f 39/50/15 42/51/15 44/52/15
f 43/53/16 42/47/16 41/49/16
f 37/54/17 41/55/17 42/56/17
f 43/57/18 39/58/18 44/59/18
f 48/60/13 49/61/13 46/62/13
f 48/63/19 45/64/19 47/65/19
f 47/66/15 50/67/15 52/68/15
f 51/69/20 50/70/20 49/71/20
f 45/72/21 49/73/21 50/74/21
f 47/75/22 53/76/22 48/76/22
f 55/77/15 60/78/15 59/77/15
f 48/79/13 54/80/13 51/80/13
f 52/81/23 54/82/23 56/81/23
f 47/77/15 56/78/15 55/77/15
f 58/83/24 59/84/24 60/85/24
f 53/79/13 58/80/13 54/80/13
f 56/81/1 58/82/1 60/81/1
f 55/75/3 57/76/3 53/76/3
f 67/86/13 62/87/13 64/88/13
f 64/89/25 61/90/25 63/91/25
f 68/92/15 61/93/15 66/94/15
f 67/95/26 66/32/26 65/96/26
f 61/97/27 65/98/27 66/99/27
f 67/100/13 69/101/13 70/100/13
f 71/102/15 76/103/15 75/102/15
f 68/104/28 70/105/28 72/104/28
f 68/103/15 71/102/15 63/102/15
f 63/106/29 69/107/29 64/107/29
f 74/108/24 75/109/24 76/110/24
f 69/101/13 74/100/13 70/100/13
f 72/104/1 74/105/1 76/104/1
f 71/106/3 73/107/3 69/107/3
f 76/111/24 57/111/24 74/111/24
f 53/111/30 72/111/31 70/111/32
f 57/111/13 70/111/32 74/111/13
f 72/111/31 59/111/15 76/111/15
f 83/112/13 78/113/13 80/114/13
f 80/115/33 77/53/33 79/116/33
f 84/117/15 77/118/15 82/119/15
f 83/120/34 82/115/34 81/116/34
f 77/121/35 81/122/35 82/123/35
f 83/124/36 79/125/36 84/55/36
f 91/126/7 86/127/7 88/128/7
f 87/115/37 86/129/37 85/130/37
f 92/131/9 85/132/9 90/36/9
f 92/133/38 89/115/38 91/134/38
f 85/135/39 89/136/39 90/137/39
f 91/85/40 87/138/40 92/139/40
f 96/129/7 97/140/7 94/131/7
f 95/141/41 94/142/41 93/143/41
f 95/144/9 98/129/9 100/145/9
f 100/146/42 97/147/42 99/148/42
f 98/149/43 94/109/43 97/150/43
f 96/151/44 100/152/44 99/153/44
f 107/154/7 102/155/7 104/156/7
f 103/157/37 102/146/37 101/148/37
f 108/133/9 101/144/9 106/145/9
f 108/158/38 105/159/38 107/160/38
f 101/151/39 105/161/39 106/153/39
f 107/162/40 103/163/40 108/124/40
f 112/164/7 113/165/7 110/166/7
f 111/158/41 110/167/41 109/168/41
f 111/169/9 114/170/9 116/171/9
f 116/172/42 113/173/42 115/174/42
f 114/175/43 110/176/43 113/177/43
f 112/178/44 116/136/44 115/179/44
f 123/180/7 118/44/7 120/181/7
f 119/182/37 118/172/37 117/174/37
f 124/183/9 117/169/9 122/171/9
f 124/184/38 121/182/38 123/185/38
f 117/186/39 121/187/39 122/188/39
f 123/189/40 119/190/40 124/191/40
f 131/192/7 126/27/7 128/193/7
f 127/194/45 126/184/45 125/185/45
f 132/195/9 125/192/9 130/193/9
f 132/196/46 129/194/46 131/197/46
f 125/198/47 129/199/47 130/200/47
f 131/201/48 127/202/48 132/203/48
f 139/204/7 134/195/7 136/205/7
f 135/206/45 134/207/45 133/141/45
f 140/208/9 133/204/9 138/205/9
f 140/209/46 137/197/46 139/210/46
f 133/211/47 137/212/47 138/213/47
f 139/214/48 135/215/48 140/216/48
f 147/217/7 142/208/7 144/218/7
f 143/219/45 142/209/45 141/210/45
f 148/220/9 141/221/9 146/222/9
f 148/223/46 145/157/46 147/51/46
f 141/224/47 145/225/47 146/226/47
f 147/227/48 143/228/48 148/229/48
f 152/230/7 153/231/7 150/232/7
f 151/233/8 150/234/8 149/235/8
f 151/236/9 154/237/9 156/238/9
f 156/239/10 153/233/10 155/240/10
f 154/241/11 150/242/11 153/243/11
f 152/244/12 156/245/12 155/246/12
f 160/247/7 161/248/7 158/249/7
f 159/250/8 158/239/8 157/240/8
f 159/251/9 162/238/9 164/252/9
f 164/127/10 161/253/10 163/119/10
f 162/254/11 158/255/11 161/256/11
f 160/257/12 164/258/12 163/259/12
f 168/260/7 169/261/7 166/31/7
f 167/47/41 166/36/41 165/37/41
f 167/132/9 170/260/9 172/36/9
f 172/129/42 169/47/42 171/130/42
f 170/262/43 166/263/43 169/149/43
f 168/264/44 172/265/44 171/175/44
f 179/266/49 174/250/49 176/267/49
f 175/127/50 174/268/50 173/269/50
f 180/155/51 173/270/51 178/268/51
f 180/44/52 177/206/52 179/166/52
f 173/271/53 177/272/53 178/273/53
f 179/263/54 175/274/54 180/275/54
f 184/276/55 185/277/55 182/278/55
f 183/279/56 182/280/56 181/41/56
f 183/281/57 186/244/57 188/282/57
f 188/283/58 185/284/58 187/285/58
f 181/120/59 185/286/59 186/287/59
f 187/288/60 183/287/60 188/289/60
f 195/290/61 190/291/61 192/292/61
f 191/113/62 190/290/62 189/292/62
f 196/293/63 189/294/63 194/183/63
f 196/295/64 193/293/64 195/296/64
f 189/289/65 193/297/65 194/298/65
f 195/299/66 191/300/66 196/301/66
f 200/302/67 201/303/67 198/304/67
f 199/146/68 198/295/68 197/296/68
f 199/305/69 202/146/69 204/306/69
f 204/307/70 201/303/70 203/308/70
f 197/301/71 201/309/71 202/310/71
f 203/311/72 199/312/72 204/313/72
f 208/314/73 209/315/73 206/316/73
f 207/317/74 206/318/74 205/294/74
f 207/319/75 210/315/75 212/320/75
f 212/321/76 209/322/76 211/323/76
f 205/298/77 209/324/77 210/190/77
f 211/325/78 207/142/78 212/309/78
f 219/326/73 214/327/73 216/319/73
f 215/283/79 214/328/79 213/329/79
f 220/326/75 213/330/75 218/331/75
f 220/332/80 217/295/80 219/333/80
f 218/334/81 214/335/81 217/336/81
f 216/337/82 220/338/82 219/339/82
f 227/340/83 222/341/83 224/342/83
f 223/343/84 222/344/84 221/328/84
f 228/345/85 221/346/85 226/344/85
f 228/347/86 225/348/86 227/349/86
f 226/185/87 222/350/87 225/197/87
f 224/351/88 228/197/88 227/219/88
f 235/178/13 230/352/13 232/159/13
f 232/353/3 229/337/3 231/307/3
f 236/354/15 229/355/15 234/167/15
f 235/356/1 234/357/1 233/114/1
f 229/357/89 233/62/89 234/117/89
f 235/358/24 231/117/24 236/359/24
f 243/360/13 238/353/13 240/346/13
f 240/215/3 237/359/3 239/202/3
f 244/361/15 237/360/15 242/346/15
f 243/215/1 242/362/1 241/128/1
f 237/362/89 241/34/89 242/156/89
f 243/363/24 239/156/24 244/364/24
f 251/365/13 246/366/13 248/367/13
f 248/368/3 245/364/3 247/228/3
f 252/369/15 245/365/15 250/367/15
f 251/172/1 250/193/1 249/370/1
f 245/172/89 249/371/89 250/372/89
f 251/373/24 247/184/24 252/371/24
s 0
f 257/351/13 297/374/13 265/375/13
f 275/376/90 294/377/90 258/378/90
f 266/379/13 296/380/13 285/381/13
f 253/382/91 261/383/91 290/384/91
f 253/183/15 267/385/15 261/293/15
f 263/386/15 277/387/15 261/293/15
f 277/387/92 256/383/92 282/383/92
f 283/388/93 272/293/93 285/389/93
f 280/390/94 274/391/94 281/392/94
f 291/393/95 257/393/95 286/393/95
f 292/394/95 293/395/95 253/394/95
f 269/96/89 293/395/89 286/393/89
f 274/396/24 261/397/24 276/398/24
f 278/399/13 285/330/13 296/400/13
f 279/401/15 281/402/15 282/403/15
f 280/404/96 273/308/96 284/405/96
f 283/406/97 278/407/97 282/406/97
f 279/408/98 270/409/98 273/410/98
f 286/411/99 260/412/99 288/412/99
f 255/413/100 290/414/100 287/415/100
f 262/403/101 292/403/101 254/416/101
f 262/417/102 286/338/102 293/418/102
f 271/162/103 255/419/103 268/420/103
f 262/421/104 268/420/104 260/119/104
f 259/381/105 269/381/105 265/375/105
f 284/422/106 278/399/106 296/400/106
f 296/380/107 275/376/107 284/423/107
f 297/374/108 258/378/108 294/377/108
f 268/424/109 289/425/109 298/426/109
f 298/427/110 299/428/110 288/171/110
s 1
f 306/429/13 301/430/13 303/431/13
f 303/432/3 300/164/3 302/433/3
f 307/434/15 300/435/15 305/369/15
f 306/209/1 305/222/1 304/196/1
f 300/436/89 304/249/89 305/181/89
f 306/316/24 302/181/24 307/437/24
s 0
f 334/438/1 311/439/1 316/440/1
f 311/49/2 317/441/2 316/438/2
f 317/438/3 313/439/3 335/440/3
f 335/438/4 309/442/4 334/441/4
f 310/443/5 312/438/5 308/444/5
f 311/49/6 313/440/6 315/438/6
f 310/445/1 318/446/1 319/447/1
f 318/448/2 320/447/2 319/449/2
f 317/450/6 318/447/6 316/451/6
f 314/452/3 321/447/3 317/445/3
f 310/451/4 322/453/4 314/454/4
f 322/454/5 325/447/5 324/453/5
f 320/455/3 322/447/3 324/453/3
f 319/445/1 323/453/1 310/455/1
f 325/456/1 327/457/1 329/458/1
f 327/456/2 328/457/2 329/458/2
f 329/456/1 331/459/1 325/460/1
f 324/461/3 326/458/3 320/456/3
f 320/461/6 327/458/6 319/456/6
f 330/460/5 333/458/5 332/459/5
f 329/460/2 332/458/2 333/459/2
f 328/460/3 330/458/3 332/459/3
f 325/456/4 330/459/4 324/460/4
f 312/438/4 334/442/4 308/441/4
f 362/462/1 339/463/1 344/464/1
f 339/463/2 345/465/2 344/464/2
f 345/464/3 341/64/3 340/466/3
f 363/464/4 337/467/4 362/468/4
f 338/466/5 340/464/5 336/469/5
f 339/463/6 341/462/6 343/464/6
f 338/470/1 346/471/1 347/472/1
f 346/473/2 348/472/2 347/474/2
f 345/475/6 346/472/6 344/476/6
f 342/477/3 349/472/3 345/470/3
f 338/476/4 350/478/4 342/479/4
f 350/479/5 353/472/5 352/478/5
f 348/480/3 350/472/3 352/478/3
f 347/470/1 351/478/1 338/480/1
f 353/481/1 355/482/1 357/483/1
f 355/481/2 356/482/2 357/483/2
f 357/481/1 359/484/1 353/485/1
f 352/486/3 354/483/3 348/481/3
f 348/486/6 355/483/6 347/481/6
f 358/485/5 361/483/5 360/484/5
f 357/485/2 360/483/2 361/484/2
f 356/485/3 358/483/3 360/484/3
f 353/481/4 358/484/4 352/485/4
f 340/464/4 362/467/4 336/468/4
f 390/487/1 367/488/1 366/489/1
f 367/490/2 373/491/2 372/487/2
f 373/487/3 369/488/3 391/137/3
f 391/487/4 365/492/4 390/491/4
f 366/489/5 368/487/5 364/493/5
f 367/490/6 369/137/6 371/487/6
f 366/494/1 374/495/1 375/496/1
f 374/497/2 376/496/2 375/498/2
f 373/499/6 374/496/6 372/500/6
f 370/501/3 377/496/3 373/494/3
f 366/500/4 378/502/4 370/503/4
f 378/503/5 381/496/5 380/502/5
f 376/504/3 378/496/3 380/502/3
f 375/494/1 379/502/1 366/504/1
f 381/505/1 383/506/1 385/507/1
f 383/505/2 384/506/2 385/507/2
f 385/505/1 387/508/1 381/509/1
f 380/510/3 382/507/3 376/505/3
f 376/510/6 383/507/6 375/505/6
f 386/509/5 389/507/5 388/508/5
f 385/509/2 388/507/2 389/508/2
f 384/509/3 386/507/3 388/508/3
f 381/505/4 386/508/4 380/509/4
f 368/487/4 390/492/4 364/491/4
f 393/511/111 400/512/111 394/513/111
f 395/511/112 398/514/112 394/515/112
f 399/516/113 401/512/113 396/517/113
f 396/515/114 393/512/114 392/514/114
f 394/518/115 396/519/115 392/520/115
f 403/521/113 406/511/113 397/522/113
f 395/511/116 401/514/116 399/515/116
f 405/523/116 403/512/116 402/511/116
f 401/511/117 405/524/117 402/512/117
f 393/523/111 405/512/111 400/511/111
f 397/511/113 402/524/113 403/512/113
f 406/521/118 409/511/118 407/522/118
f 393/522/119 406/523/119 407/511/119
f 404/522/111 407/523/111 409/511/111
f 404/521/116 408/511/116 403/522/116
f 411/511/111 413/516/111 412/513/111
f 413/511/120 416/514/120 412/515/120
f 417/516/113 415/511/113 414/517/113
f 414/515/121 411/512/121 410/514/121
f 412/518/122 414/519/122 410/520/122
f 421/521/113 424/511/113 415/522/113
f 413/511/116 419/514/116 417/515/116
f 423/523/116 421/512/116 420/511/116
f 419/511/117 423/524/117 420/512/117
f 411/523/111 423/512/111 418/511/111
f 415/511/113 420/524/113 421/512/113
f 424/521/123 427/511/123 425/522/123
f 411/522/119 424/523/119 425/511/119
f 422/522/111 425/523/111 427/511/111
f 422/521/116 426/511/116 421/522/116
f 429/511/111 436/512/111 430/513/111
f 431/511/124 434/514/124 430/515/124
f 435/516/113 433/511/113 432/517/113
f 432/515/125 429/512/125 428/514/125
f 430/518/126 432/519/126 428/520/126
f 439/521/113 442/511/113 433/522/113
f 431/511/116 437/514/116 435/515/116
f 441/523/116 439/512/116 438/511/116
f 437/511/117 441/524/117 438/512/117
f 429/523/111 441/512/111 436/511/111
f 433/511/113 438/524/113 439/512/113
f 442/521/123 445/511/123 443/522/123
f 429/522/119 442/523/119 443/511/119
f 440/522/111 443/523/111 445/511/111
f 440/521/116 444/511/116 439/522/116
f 3/3/1 1/7/1 27/1/1
f 27/1/1 2/6/1 4/2/1
f 4/2/127 9/5/127 3/3/127
f 4/2/2 8/138/2 10/4/2
f 5/7/3 7/3/3 10/5/3
f 10/5/3 8/2/3 6/6/3
f 6/6/128 28/1/128 5/7/128
f 28/5/4 6/2/4 2/8/4
f 3/7/5 7/1/5 5/5/5
f 4/2/6 2/6/6 6/1/6
f 3/10/1 9/17/1 11/11/1
f 11/13/2 14/11/2 13/12/2
f 10/15/6 14/11/6 11/12/6
f 7/17/3 13/11/3 14/12/3
f 3/16/4 16/12/4 15/18/4
f 15/19/5 16/16/5 18/12/5
f 13/20/3 7/10/3 15/12/3
f 12/10/1 18/12/1 16/18/1
f 18/21/1 12/26/1 20/22/1
f 20/21/2 19/26/2 21/22/2
f 22/21/1 26/23/1 24/24/1
f 17/26/3 21/22/3 19/23/3
f 13/26/6 19/22/6 20/23/6
f 23/25/5 24/21/5 26/23/5
f 22/25/2 21/21/2 25/23/2
f 21/25/3 17/21/3 23/23/3
f 18/21/4 24/23/4 23/24/4
f 5/5/4 28/2/4 27/8/4
s 1
f 32/27/7 35/525/7 33/28/7
f 31/30/8 32/260/8 30/31/8
f 31/33/9 29/526/9 34/34/9
f 36/36/10 34/260/10 33/30/10
f 34/38/11 29/356/11 30/39/11
f 32/41/12 31/234/12 36/42/12
f 40/44/13 43/527/13 41/45/13
f 40/47/14 38/37/14 37/48/14
f 39/50/15 37/528/15 42/51/15
f 43/53/16 44/130/16 42/47/16
f 37/54/17 38/125/17 41/55/17
f 43/57/18 40/397/18 39/58/18
f 48/60/13 51/529/13 49/61/13
f 48/63/19 46/324/19 45/64/19
f 47/66/15 45/530/15 50/67/15
f 51/69/20 52/531/20 50/70/20
f 45/72/21 46/532/21 49/73/21
f 47/75/22 55/75/22 53/76/22
f 55/77/15 56/78/15 60/78/15
f 48/79/13 53/79/13 54/80/13
f 52/81/23 51/82/23 54/82/23
f 47/77/15 52/78/15 56/78/15
f 58/83/24 57/533/24 59/84/24
f 53/79/13 57/79/13 58/80/13
f 56/81/1 54/82/1 58/82/1
f 55/75/3 59/75/3 57/76/3
f 67/86/13 65/534/13 62/87/13
f 64/89/25 62/513/25 61/90/25
f 68/92/15 63/535/15 61/93/15
f 67/95/26 68/536/26 66/32/26
f 61/97/27 62/537/27 65/98/27
f 67/100/13 64/101/13 69/101/13
f 71/102/15 72/103/15 76/103/15
f 68/104/28 67/105/28 70/105/28
f 68/103/15 72/103/15 71/102/15
f 63/106/29 71/106/29 69/107/29
f 74/108/24 73/538/24 75/109/24
f 69/101/13 73/101/13 74/100/13
f 72/104/1 70/105/1 74/105/1
f 71/106/3 75/106/3 73/107/3
f 76/111/24 59/111/24 57/111/24
f 53/111/30 55/111/129 72/111/31
f 57/111/13 53/111/30 70/111/32
f 72/111/31 55/111/129 59/111/15
f 83/112/13 81/420/13 78/113/13
f 80/115/33 78/130/33 77/53/33
f 84/117/15 79/539/15 77/118/15
f 83/120/34 84/134/34 82/115/34
f 77/121/35 78/540/35 81/122/35
f 83/124/36 80/163/36 79/125/36
f 91/126/7 89/541/7 86/127/7
f 87/115/37 88/145/37 86/129/37
f 92/131/9 87/140/9 85/132/9
f 92/133/38 90/145/38 89/115/38
f 85/135/39 86/542/39 89/136/39
f 91/85/40 88/6/40 87/138/40
f 96/129/7 99/543/7 97/140/7
f 95/141/41 96/207/41 94/142/41
f 95/144/9 93/543/9 98/129/9
f 100/146/42 98/296/42 97/147/42
f 98/149/43 93/263/43 94/109/43
f 96/151/44 95/544/44 100/152/44
f 107/154/7 105/545/7 102/155/7
f 103/157/37 104/306/37 102/146/37
f 108/133/9 103/546/9 101/144/9
f 108/158/38 106/168/38 105/159/38
f 101/151/39 102/301/39 105/161/39
f 107/162/40 104/312/40 103/163/40
f 112/164/7 115/547/7 113/165/7
f 111/158/41 112/354/41 110/167/41
f 111/169/9 109/548/9 114/170/9
f 116/172/42 114/370/42 113/173/42
f 114/175/43 109/264/43 110/176/43
f 112/178/44 111/542/44 116/136/44
f 123/180/7 121/527/7 118/44/7
f 119/182/37 120/549/37 118/172/37
f 124/183/9 119/550/9 117/169/9
f 124/184/38 122/549/38 121/182/38
f 117/186/39 118/551/39 121/187/39
f 123/189/40 120/97/40 119/190/40
f 131/192/7 129/525/7 126/27/7
f 127/194/45 128/552/45 126/184/45
f 132/195/9 127/553/9 125/192/9
f 132/196/46 130/552/46 129/194/46
f 125/198/47 126/554/47 129/199/47
f 131/201/48 128/555/48 127/202/48
f 139/204/7 137/553/7 134/195/7
f 135/206/45 136/46/45 134/207/45
f 140/208/9 135/556/9 133/204/9
f 140/209/46 138/196/46 137/197/46
f 133/211/47 134/557/47 137/212/47
f 139/214/48 136/558/48 135/215/48
f 147/217/7 145/556/7 142/208/7
f 143/219/45 144/559/45 142/209/45
f 148/220/9 143/560/9 141/221/9
f 148/223/46 146/306/46 145/157/46
f 141/224/47 142/561/47 145/225/47
f 147/227/48 144/562/48 143/228/48
f 152/230/7 155/563/7 153/231/7
f 151/233/8 152/564/8 150/234/8
f 151/236/9 149/565/9 154/237/9
f 156/239/10 154/564/10 153/233/10
f 154/241/11 149/566/11 150/242/11
f 152/244/12 151/372/12 156/245/12
f 160/247/7 163/567/7 161/248/7
f 159/250/8 160/41/8 158/239/8
f 159/251/9 157/236/9 162/238/9
f 164/127/10 162/269/10 161/253/10
f 162/254/11 157/433/11 158/255/11
f 160/257/12 159/568/12 164/258/12
f 168/260/7 171/569/7 169/261/7
f 167/47/41 168/131/41 166/36/41
f 167/132/9 165/569/9 170/260/9
f 172/129/42 170/131/42 169/47/42
f 170/262/43 165/275/43 166/263/43
f 168/264/44 167/570/44 172/265/44
f 179/266/49 177/41/49 174/250/49
f 175/127/50 176/155/50 174/268/50
f 180/155/51 175/571/51 173/270/51
f 180/44/52 178/46/52 177/206/52
f 173/271/53 174/570/53 177/272/53
f 179/263/54 176/138/54 175/274/54
f 184/276/55 187/572/55 185/277/55
f 183/279/56 184/573/56 182/280/56
f 183/281/57 181/574/57 186/244/57
f 188/283/58 186/329/58 185/284/58
f 181/120/59 182/439/59 185/286/59
f 187/288/60 184/286/60 183/287/60
f 195/290/61 193/311/61 190/291/61
f 191/113/62 192/575/62 190/290/62
f 196/293/63 191/322/63 189/294/63
f 196/295/64 194/322/64 193/293/64
f 189/289/65 190/288/65 193/297/65
f 195/299/66 192/143/66 191/300/66
f 200/302/67 203/308/67 201/303/67
f 199/146/68 200/341/68 198/295/68
f 199/305/69 197/341/69 202/146/69
f 204/307/70 202/337/70 201/303/70
f 197/301/71 198/299/71 201/309/71
f 203/311/72 200/291/72 199/312/72
f 208/314/73 211/320/73 209/315/73
f 207/317/74 208/576/74 206/318/74
f 207/319/75 205/327/75 210/315/75
f 212/321/76 210/577/76 209/322/76
f 205/298/77 206/297/77 209/324/77
f 211/325/78 208/46/78 207/142/78
f 219/326/73 217/331/73 214/327/73
f 215/283/79 216/343/79 214/328/79
f 220/326/75 215/578/75 213/330/75
f 220/332/80 218/579/80 217/295/80
f 218/334/81 213/537/81 214/335/81
f 216/337/82 215/306/82 220/338/82
f 227/340/83 225/580/83 222/341/83
f 223/343/84 224/345/84 222/344/84
f 228/345/85 223/581/85 221/346/85
f 228/347/86 226/582/86 225/348/86
f 226/185/87 221/583/87 222/350/87
f 224/351/88 223/350/88 228/197/88
f 235/178/13 233/584/13 230/352/13
f 232/353/3 230/348/3 229/337/3
f 236/354/15 231/270/15 229/355/15
f 235/356/1 236/585/1 234/357/1
f 229/357/89 230/430/89 233/62/89
f 235/358/24 232/62/24 231/117/24
f 243/360/13 241/586/13 238/353/13
f 240/215/3 238/128/3 237/359/3
f 244/361/15 239/587/15 237/360/15
f 243/215/1 244/588/1 242/362/1
f 237/362/89 238/94/89 241/34/89
f 243/363/24 240/34/24 239/156/24
f 251/365/13 249/589/13 246/366/13
f 248/368/3 246/590/3 245/364/3
f 252/369/15 247/435/15 245/365/15
f 251/172/1 252/195/1 250/193/1
f 245/172/89 246/184/89 249/371/89
f 251/373/24 248/196/24 247/184/24
s 0
f 265/375/130 286/591/130 257/351/130
f 257/351/131 299/592/131 297/374/131
f 297/374/13 294/377/13 265/375/13
f 258/378/132 264/382/132 274/171/132
f 274/171/13 284/423/13 275/376/13
f 275/376/106 295/593/106 294/377/106
f 258/378/133 274/171/133 275/376/133
f 285/381/134 259/381/134 266/379/134
f 266/379/13 295/593/13 296/380/13
f 264/594/135 297/595/135 299/428/135
f 299/428/136 298/427/136 289/596/136
f 289/596/137 287/597/137 290/384/137
f 264/594/138 299/428/138 289/596/138
f 264/594/139 289/596/139 290/384/139
f 261/383/140 264/594/140 290/384/140
f 290/384/141 292/382/141 253/382/141
f 253/183/142 293/183/142 267/385/142
f 277/387/143 281/598/143 276/389/143
f 267/385/15 293/183/15 272/383/15
f 272/383/144 282/383/144 256/383/144
f 272/383/145 256/383/145 263/386/145
f 261/293/15 267/385/15 272/383/15
f 277/387/15 276/389/15 261/293/15
f 261/293/15 272/383/15 263/386/15
f 282/383/15 281/598/15 277/387/15
f 277/387/15 263/386/15 256/383/15
f 283/388/146 282/388/146 272/293/146
f 272/293/147 269/389/147 285/389/147
f 280/390/148 284/599/148 274/391/148
f 274/391/149 276/296/149 281/392/149
f 269/96/89 272/71/89 293/395/89
f 274/396/24 264/600/24 261/397/24
f 279/401/15 273/601/15 281/402/15
f 280/404/150 281/414/150 273/308/150
f 273/308/24 270/602/24 284/405/24
f 283/406/151 285/135/151 278/407/151
f 278/407/151 279/408/151 282/406/151
f 279/408/98 278/407/98 270/409/98
f 260/412/13 268/424/13 298/426/13
f 288/412/95 291/412/95 286/411/95
f 260/412/152 298/426/152 288/412/152
f 287/415/153 289/603/153 255/413/153
f 255/413/24 254/308/24 290/414/24
f 254/416/15 271/604/15 262/403/15
f 262/403/101 293/403/101 292/403/101
f 292/403/15 290/605/15 254/416/15
f 262/417/154 260/338/154 286/338/154
f 271/162/103 254/313/103 255/419/103
f 262/421/104 271/162/104 268/420/104
f 265/375/13 294/377/13 295/593/13
f 265/375/13 295/593/13 266/379/13
f 269/381/13 286/591/13 265/375/13
f 259/381/155 285/381/155 269/381/155
f 265/375/13 266/379/13 259/381/13
f 284/422/156 270/601/156 278/399/156
f 296/380/106 295/593/106 275/376/106
f 297/374/157 264/382/157 258/378/157
f 268/424/158 255/277/158 289/425/158
f 257/171/141 291/171/141 288/171/141
f 299/428/141 257/171/141 288/171/141
s 1
f 306/429/13 304/62/13 301/430/13
f 303/432/3 301/436/3 300/164/3
f 307/434/15 302/280/15 300/435/15
f 306/209/1 307/220/1 305/222/1
f 300/436/89 301/232/89 304/249/89
f 306/316/24 303/249/24 302/181/24
s 0
f 310/443/1 308/444/1 334/438/1
f 334/438/1 309/49/1 311/439/1
f 316/440/1 310/443/1 334/438/1
f 311/49/2 315/442/2 317/441/2
f 312/443/3 314/444/3 317/438/3
f 317/438/3 315/49/3 313/439/3
f 335/440/3 312/443/3 317/438/3
f 335/438/4 313/49/4 309/442/4
f 310/443/5 314/440/5 312/438/5
f 311/49/6 309/439/6 313/440/6
f 310/445/1 316/452/1 318/446/1
f 318/448/2 321/446/2 320/447/2
f 317/450/6 321/446/6 318/447/6
f 314/452/3 320/446/3 321/447/3
f 310/451/4 323/447/4 322/453/4
f 322/454/5 323/451/5 325/447/5
f 320/455/3 314/445/3 322/447/3
f 319/445/1 325/447/1 323/453/1
f 325/456/1 319/461/1 327/457/1
f 327/456/2 326/461/2 328/457/2
f 329/456/1 333/458/1 331/459/1
f 324/461/3 328/457/3 326/458/3
f 320/461/6 326/457/6 327/458/6
f 330/460/5 331/456/5 333/458/5
f 329/460/2 328/456/2 332/458/2
f 328/460/3 324/456/3 330/458/3
f 325/456/4 331/458/4 330/459/4
f 312/438/4 335/49/4 334/442/4
f 338/469/1 336/466/1 362/462/1
f 362/462/1 337/64/1 339/463/1
f 344/464/1 338/469/1 362/462/1
f 339/463/2 343/606/2 345/465/2
f 340/466/3 342/469/3 345/464/3
f 345/464/3 343/463/3 341/64/3
f 341/64/159 363/462/159 340/466/159
f 363/464/4 341/463/4 337/467/4
f 338/466/5 342/462/5 340/464/5
f 339/463/6 337/64/6 341/462/6
f 338/470/1 344/477/1 346/471/1
f 346/473/2 349/471/2 348/472/2
f 345/475/6 349/471/6 346/472/6
f 342/477/3 348/471/3 349/472/3
f 338/476/4 351/472/4 350/478/4
f 350/479/5 351/476/5 353/472/5
f 348/480/3 342/470/3 350/472/3
f 347/470/1 353/472/1 351/478/1
f 353/481/1 347/486/1 355/482/1
f 355/481/2 354/486/2 356/482/2
f 357/481/1 361/483/1 359/484/1
f 352/486/3 356/482/3 354/483/3
f 348/486/6 354/482/6 355/483/6
f 358/485/5 359/481/5 361/483/5
f 357/485/2 356/481/2 360/483/2
f 356/485/3 352/481/3 358/483/3
f 353/481/4 359/483/4 358/484/4
f 340/464/4 363/463/4 362/467/4
f 366/489/1 364/493/1 390/487/1
f 390/487/1 365/490/1 367/488/1
f 367/488/160 372/137/160 366/489/160
f 367/490/2 371/492/2 373/491/2
f 368/489/3 370/493/3 373/487/3
f 373/487/3 371/490/3 369/488/3
f 391/137/3 368/489/3 373/487/3
f 391/487/4 369/490/4 365/492/4
f 366/489/5 370/137/5 368/487/5
f 367/490/6 365/488/6 369/137/6
f 366/494/1 372/501/1 374/495/1
f 374/497/2 377/495/2 376/496/2
f 373/499/6 377/495/6 374/496/6
f 370/501/3 376/495/3 377/496/3
f 366/500/4 379/496/4 378/502/4
f 378/503/5 379/500/5 381/496/5
f 376/504/3 370/494/3 378/496/3
f 375/494/1 381/496/1 379/502/1
f 381/505/1 375/510/1 383/506/1
f 383/505/2 382/510/2 384/506/2
f 385/505/1 389/507/1 387/508/1
f 380/510/3 384/506/3 382/507/3
f 376/510/6 382/506/6 383/507/6
f 386/509/5 387/505/5 389/507/5
f 385/509/2 384/505/2 388/507/2
f 384/509/3 380/505/3 386/507/3
f 381/505/4 387/507/4 386/508/4
f 368/487/4 391/490/4 390/492/4
f 394/513/111 392/517/111 393/511/111
f 400/512/111 395/516/111 394/513/111
f 395/511/112 399/512/112 398/514/112
f 396/517/113 398/513/113 399/516/113
f 401/512/113 397/511/113 396/517/113
f 396/515/114 397/511/114 393/512/114
f 394/518/115 398/607/115 396/519/115
f 403/521/113 408/523/113 406/511/113
f 395/511/116 400/512/116 401/514/116
f 405/523/116 404/524/116 403/512/116
f 401/511/117 400/523/117 405/524/117
f 393/523/111 404/524/111 405/512/111
f 397/511/113 401/523/113 402/524/113
f 406/521/118 408/523/118 409/511/118
f 393/522/119 397/521/119 406/523/119
f 404/522/111 393/521/111 407/523/111
f 404/521/116 409/523/116 408/511/116
f 412/513/111 410/517/111 411/511/111
f 411/511/161 418/512/161 413/516/161
f 413/511/120 417/512/120 416/514/120
f 414/517/113 416/513/113 417/516/113
f 417/516/162 419/512/162 415/511/162
f 414/515/121 415/511/121 411/512/121
f 412/518/122 416/607/122 414/519/122
f 421/521/113 426/523/113 424/511/113
f 413/511/116 418/512/116 419/514/116
f 423/523/116 422/524/116 421/512/116
f 419/511/117 418/523/117 423/524/117
f 411/523/111 422/524/111 423/512/111
f 415/511/113 419/523/113 420/524/113
f 424/521/123 426/523/123 427/511/123
f 411/522/119 415/521/119 424/523/119
f 422/522/111 411/521/111 425/523/111
f 422/521/116 427/523/116 426/511/116
f 430/513/111 428/517/111 429/511/111
f 436/512/111 431/516/111 430/513/111
f 431/511/124 435/512/124 434/514/124
f 432/517/113 434/513/113 435/516/113
f 435/516/163 437/512/163 433/511/163
f 432/515/125 433/511/125 429/512/125
f 430/518/126 434/607/126 432/519/126
f 439/521/113 444/523/113 442/511/113
f 431/511/116 436/512/116 437/514/116
f 441/523/116 440/524/116 439/512/116
f 437/511/117 436/523/117 441/524/117
f 429/523/111 440/524/111 441/512/111
f 433/511/113 437/523/113 438/524/113
f 442/521/123 444/523/123 445/511/123
f 429/522/119 433/521/119 442/523/119
f 440/522/111 429/521/111 443/523/111
f 440/521/116 445/523/116 444/511/116
